<svg width="409" height="386" viewBox="0 0 409 386" fill="none" xmlns="http://www.w3.org/2000/svg">
<path d="M223 0C240.673 0 255 14.3269 255 32V36H263C290.614 36 313 58.3858 313 86V110.098C318.15 110.779 322.21 115.028 322.526 120.348L324.308 150.348C324.683 156.668 319.659 162 313.327 162H313V182C313 209.614 290.614 232 263 232H146C118.386 232 96 209.614 96 182V86C96 58.3858 118.386 36 146 36H154V32C154 14.3269 168.327 0 186 0H223ZM146 48C125.013 48 108 65.0132 108 86V182C108 202.987 125.013 220 146 220H263C283.987 220 301 202.987 301 182V162C294.925 162 290 157.075 290 151V121C290 114.925 294.925 110 301 110V86C301 65.0132 283.987 48 263 48H146ZM305.174 137C303.65 137 302.368 138.142 302.193 139.656L301.386 146.656C301.18 148.437 302.573 150 304.366 150H310.729C312.658 150 314.086 148.205 313.652 146.325L312.037 139.325C311.723 137.964 310.51 137 309.113 137H305.174ZM186 12C174.954 12 166 20.9543 166 32V36H243V32C243 20.9543 234.046 12 223 12H186Z" fill="#31302E"/>
<path d="M196 101C196 117.569 182.569 131 166 131C149.431 131 136 117.569 136 101C136 84.4315 149.431 71 166 71C182.569 71 196 84.4315 196 101Z" fill="#F1B9A4"/>
<path d="M211 85C211 78.9249 215.925 74 222 74H267C273.075 74 278 78.9249 278 85V120C278 126.075 273.075 131 267 131H222C215.925 131 211 126.075 211 120V85Z" fill="#EEDECA"/>
<path d="M132 153C132 146.925 136.925 142 143 142H188C194.075 142 199 146.925 199 153V188C199 194.075 194.075 199 188 199H143C136.925 199 132 194.075 132 188V153Z" fill="#ABB69E"/>
<path d="M211 175.5C211 156.998 225.998 142 244.5 142V142C263.002 142 278 156.998 278 175.5V188C278 194.075 273.075 199 267 199H222C215.925 199 211 194.075 211 188V175.5Z" fill="#92A3B0"/>
<path d="M38.916 266.61C41.0638 264.463 44.5456 264.463 46.6934 266.61C48.8412 268.758 48.8412 272.241 46.6934 274.389L25.2744 295.807L49.5859 322.82C51.6179 325.078 51.4354 328.556 49.1777 330.588C46.9199 332.62 43.4422 332.437 41.4102 330.179L17.4854 303.596L11 310.082V328C11 331.038 8.53756 333.5 5.5 333.5C2.46243 333.5 -1.32776e-07 331.038 0 328V271C1.32776e-07 267.963 2.46243 265.5 5.5 265.5C8.53757 265.5 11 267.963 11 271V294.527L38.916 266.61ZM111.916 266.61C114.064 264.463 117.546 264.463 119.693 266.61C121.841 268.758 121.841 272.241 119.693 274.389L98.2744 295.807L122.586 322.82C124.618 325.078 124.435 328.556 122.178 330.588C119.92 332.62 116.442 332.437 114.41 330.179L90.4854 303.596L84 310.082V328C84 331.038 81.5376 333.5 78.5 333.5C75.4624 333.5 73 331.038 73 328V271C73 267.963 75.4624 265.5 78.5 265.5C81.5376 265.5 84 267.963 84 271V294.527L111.916 266.61ZM195.5 265.5C198.538 265.5 201 267.963 201 271V306C201 321.188 188.688 333.5 173.5 333.5C158.312 333.5 146 321.188 146 306V271C146 267.963 148.462 265.5 151.5 265.5C154.538 265.5 157 267.963 157 271V306C157 315.113 164.387 322.5 173.5 322.5C182.613 322.5 190 315.113 190 306V271C190 267.963 192.462 265.5 195.5 265.5ZM257.75 265.5C269.486 265.5 279 275.014 279 286.75C279 295.778 273.369 303.49 265.429 306.569L277.901 323.2C279.724 325.63 279.232 329.079 276.802 330.902C274.372 332.724 270.924 332.231 269.102 329.801L252.752 308H238V328C238 331.038 235.538 333.5 232.5 333.5C229.462 333.5 227 331.038 227 328V271C227 267.963 229.462 265.5 232.5 265.5H257.75ZM310.5 265.5C313.538 265.5 316 267.963 316 271V328C316 331.038 313.538 333.5 310.5 333.5C307.462 333.5 305 331.038 305 328V271C305 267.963 307.462 265.5 310.5 265.5ZM397.353 269.697C401.079 264.816 409 267.415 409 273.668V327.5C409 330.538 406.538 333 403.5 333C400.462 333 398 330.538 398 327.5V287.921L381.821 310.99C379.233 314.681 373.767 314.681 371.179 310.99L355 287.921V327.5C355 330.538 352.538 333 349.5 333C346.462 333 344 330.538 344 327.5V273.668C344 267.316 352.174 264.735 355.821 269.936L376.5 299.421L397.179 269.936L397.353 269.697ZM238 297H257.75C263.411 297 268 292.411 268 286.75C268 281.089 263.411 276.5 257.75 276.5H238V297Z" fill="#32302F"/>
<path d="M58.8178 362.206H60.5033V371.73H58.8178V362.206ZM48.5422 372.623H60.5033V377.03H50.248V379.792H48.5828V375.791H58.8381V373.964H48.5422V372.623ZM48.5828 379.02H61.1734V380.381H48.5828V379.02ZM46.2474 363.465H56.1169V364.785H46.2474V363.465ZM45.9428 371.1L45.7397 369.719C46.8363 369.706 48.0277 369.686 49.3139 369.659C50.6 369.631 51.8997 369.584 53.2129 369.516C54.5397 369.435 55.7987 369.327 56.9901 369.191L57.0713 370.41C55.8664 370.599 54.6074 370.742 53.2941 370.836C51.9809 370.931 50.6948 370.999 49.4357 371.039C48.1902 371.08 47.0259 371.1 45.9428 371.1ZM48.0548 364.074H49.6794V370.308H48.0548V364.074ZM52.6646 364.074H54.3095V370.308H52.6646V364.074ZM68.1983 371.669H69.8635V377.152H68.1983V371.669ZM74.981 371.669H76.6665V377.152H74.981V371.669ZM64.1164 376.827H80.7686V378.228H64.1164V376.827ZM72.4019 363.363C73.7016 363.363 74.8523 363.56 75.8542 363.952C76.856 364.345 77.6412 364.893 78.2099 365.597C78.792 366.301 79.0831 367.134 79.0831 368.095C79.0831 369.043 78.792 369.875 78.2099 370.593C77.6412 371.297 76.856 371.845 75.8542 372.238C74.8523 372.617 73.7016 372.806 72.4019 372.806C71.1158 372.806 69.965 372.617 68.9496 372.238C67.9478 371.845 67.1626 371.297 66.594 370.593C66.0254 369.875 65.741 369.043 65.741 368.095C65.741 367.134 66.0254 366.301 66.594 365.597C67.1626 364.893 67.9478 364.345 68.9496 363.952C69.965 363.56 71.1158 363.363 72.4019 363.363ZM72.4019 364.704C71.4271 364.704 70.5607 364.846 69.8025 365.13C69.0444 365.414 68.4487 365.814 68.0155 366.328C67.5823 366.829 67.3656 367.418 67.3656 368.095C67.3656 368.772 67.5823 369.367 68.0155 369.882C68.4487 370.383 69.0444 370.775 69.8025 371.06C70.5607 371.344 71.4271 371.486 72.4019 371.486C73.3902 371.486 74.2634 371.344 75.0216 371.06C75.7797 370.775 76.3754 370.383 76.8086 369.882C77.2419 369.367 77.4585 368.772 77.4585 368.095C77.4585 367.418 77.2419 366.829 76.8086 366.328C76.3754 365.814 75.7797 365.414 75.0216 365.13C74.2634 364.846 73.3902 364.704 72.4019 364.704ZM95.3681 362.226H97.0536V375.994H95.3681V362.226ZM96.5256 368.257H99.7545V369.659H96.5256V368.257ZM82.8384 364.46H93.6826V365.82H82.8384V364.46ZM88.2605 366.815C89.1269 366.815 89.8918 366.964 90.5552 367.262C91.2186 367.547 91.7331 367.946 92.0986 368.46C92.4641 368.961 92.6469 369.557 92.6469 370.247C92.6469 370.938 92.4641 371.54 92.0986 372.055C91.7331 372.556 91.2186 372.948 90.5552 373.233C89.8918 373.517 89.1269 373.659 88.2605 373.659C87.394 373.659 86.6291 373.517 85.9657 373.233C85.3024 372.948 84.7811 372.556 84.4021 372.055C84.0365 371.54 83.8538 370.938 83.8538 370.247C83.8538 369.557 84.0365 368.961 84.4021 368.46C84.7811 367.946 85.3024 367.547 85.9657 367.262C86.6291 366.964 87.394 366.815 88.2605 366.815ZM88.2605 368.135C87.4346 368.135 86.7645 368.332 86.25 368.724C85.7356 369.103 85.4784 369.611 85.4784 370.247C85.4784 370.884 85.7356 371.391 86.25 371.771C86.7645 372.15 87.4346 372.339 88.2605 372.339C89.0999 372.339 89.77 372.15 90.2709 371.771C90.7854 371.391 91.0426 370.884 91.0426 370.247C91.0426 369.611 90.7854 369.103 90.2709 368.724C89.77 368.332 89.0999 368.135 88.2605 368.135ZM87.4279 362.226H89.1134V365.15H87.4279V362.226ZM85.6205 378.797H97.8659V380.178H85.6205V378.797ZM85.6205 374.898H87.2857V379.366H85.6205V374.898ZM120.217 362.226H121.903V374.634H120.217V362.226ZM116.278 367.384H120.562V368.785H116.278V367.384ZM114.43 363.668H116.196C116.196 365.238 115.865 366.66 115.201 367.932C114.538 369.191 113.577 370.288 112.318 371.222C111.072 372.156 109.576 372.908 107.83 373.476L107.099 372.136C108.655 371.649 109.975 371.026 111.059 370.268C112.155 369.51 112.988 368.63 113.556 367.628C114.138 366.626 114.43 365.523 114.43 364.318V363.668ZM107.992 363.668H115.628V365.049H107.992V363.668ZM115.14 373.07H116.582V373.903C116.582 374.769 116.393 375.575 116.014 376.319C115.648 377.05 115.14 377.7 114.49 378.269C113.854 378.824 113.123 379.291 112.297 379.67C111.471 380.063 110.598 380.347 109.678 380.523L109.007 379.183C109.82 379.047 110.591 378.824 111.323 378.513C112.067 378.188 112.724 377.795 113.292 377.335C113.861 376.874 114.308 376.353 114.633 375.771C114.971 375.189 115.14 374.566 115.14 373.903V373.07ZM115.364 373.07H116.806V373.903C116.806 374.553 116.968 375.169 117.293 375.751C117.618 376.319 118.065 376.834 118.633 377.294C119.202 377.754 119.852 378.14 120.583 378.452C121.327 378.763 122.099 378.993 122.898 379.142L122.207 380.482C121.287 380.306 120.413 380.029 119.588 379.65C118.775 379.271 118.051 378.804 117.415 378.249C116.778 377.68 116.278 377.03 115.912 376.299C115.546 375.568 115.364 374.769 115.364 373.903V373.07ZM126.227 363.871H134.675V372.359H126.227V363.871ZM133.03 365.232H127.872V370.999H133.03V365.232ZM138.046 362.206H139.731V375.67H138.046V362.206ZM139.203 367.79H142.432V369.191H139.203V367.79ZM128.298 378.797H140.543V380.178H128.298V378.797ZM128.298 374.39H129.963V379.386H128.298V374.39ZM149.471 376.827H166.124V378.228H149.471V376.827ZM156.924 372.075H158.589V377.213H156.924V372.075ZM151.421 363.729H164.093V372.38H151.421V363.729ZM162.448 365.089H153.066V371.039H162.448V365.089ZM173.027 363.627C173.934 363.627 174.732 363.891 175.423 364.419C176.113 364.934 176.655 365.672 177.047 366.633C177.44 367.594 177.636 368.724 177.636 370.024C177.636 371.324 177.44 372.454 177.047 373.415C176.655 374.377 176.113 375.121 175.423 375.649C174.732 376.177 173.934 376.441 173.027 376.441C172.133 376.441 171.334 376.177 170.63 375.649C169.94 375.121 169.398 374.377 169.006 373.415C168.613 372.454 168.417 371.324 168.417 370.024C168.417 368.724 168.613 367.594 169.006 366.633C169.398 365.672 169.94 364.934 170.63 364.419C171.334 363.891 172.133 363.627 173.027 363.627ZM173.027 365.13C172.444 365.13 171.923 365.333 171.463 365.739C171.016 366.132 170.664 366.7 170.407 367.445C170.15 368.176 170.021 369.036 170.021 370.024C170.021 371.012 170.15 371.879 170.407 372.623C170.664 373.355 171.016 373.923 171.463 374.329C171.923 374.735 172.451 374.938 173.047 374.938C173.629 374.938 174.143 374.735 174.59 374.329C175.051 373.923 175.403 373.355 175.646 372.623C175.903 371.879 176.032 371.012 176.032 370.024C176.032 369.036 175.903 368.176 175.646 367.445C175.403 366.7 175.051 366.132 174.59 365.739C174.143 365.333 173.622 365.13 173.027 365.13ZM180.581 362.206H182.266V380.584H180.581V362.206ZM181.881 369.537H185.272V370.958H181.881V369.537ZM194.185 364.033H195.648V364.805C195.648 365.455 195.519 366.071 195.262 366.653C195.004 367.235 194.646 367.777 194.185 368.278C193.725 368.765 193.19 369.198 192.581 369.577C191.972 369.956 191.315 370.281 190.611 370.552C189.921 370.809 189.203 370.999 188.459 371.121L187.809 369.78C188.459 369.699 189.088 369.55 189.697 369.334C190.32 369.103 190.902 368.833 191.444 368.521C191.985 368.21 192.459 367.858 192.865 367.465C193.285 367.073 193.61 366.653 193.84 366.206C194.07 365.746 194.185 365.279 194.185 364.805V364.033ZM194.612 364.033H196.074V364.805C196.074 365.279 196.189 365.746 196.419 366.206C196.649 366.653 196.967 367.073 197.374 367.465C197.793 367.858 198.274 368.21 198.815 368.521C199.357 368.833 199.932 369.103 200.542 369.334C201.164 369.55 201.801 369.699 202.451 369.78L201.821 371.121C201.076 370.999 200.352 370.809 199.648 370.552C198.944 370.281 198.287 369.956 197.678 369.577C197.069 369.198 196.534 368.765 196.074 368.278C195.614 367.777 195.255 367.235 194.998 366.653C194.74 366.071 194.612 365.455 194.612 364.805V364.033ZM194.267 373.578H195.932V380.564H194.267V373.578ZM186.834 372.664H203.425V374.045H186.834V372.664ZM188.398 363.343H201.841V364.704H188.398V363.343ZM207.749 367.729H220.238V369.09H207.749V367.729ZM205.495 371.547H222.147V372.928H205.495V371.547ZM207.749 362.876H209.414V368.42H207.749V362.876ZM207.627 378.756H220.34V380.137H207.627V378.756ZM207.627 374.776H209.313V379.122H207.627V374.776ZM243.178 369.537H246.55V370.938H243.178V369.537ZM241.94 362.206H243.625V380.564H241.94V362.206ZM230.243 364.013H231.908V375.385H230.243V364.013ZM230.243 374.512H231.705C233.045 374.512 234.419 374.451 235.827 374.329C237.249 374.207 238.718 373.991 240.234 373.679L240.437 375.101C238.867 375.412 237.364 375.629 235.929 375.751C234.507 375.859 233.099 375.913 231.705 375.913H230.243V374.512ZM248.944 363.871H257.392V372.359H248.944V363.871ZM255.747 365.232H250.589V370.999H255.747V365.232ZM260.763 362.206H262.449V375.67H260.763V362.206ZM261.921 367.79H265.15V369.191H261.921V367.79ZM251.016 378.797H263.261V380.178H251.016V378.797ZM251.016 374.39H252.681V379.386H251.016V374.39ZM272.824 363.546C273.785 363.546 274.632 363.729 275.363 364.094C276.107 364.446 276.689 364.947 277.109 365.597C277.529 366.247 277.739 367.005 277.739 367.871C277.739 368.724 277.529 369.483 277.109 370.146C276.689 370.796 276.107 371.303 275.363 371.669C274.632 372.021 273.785 372.197 272.824 372.197C271.877 372.197 271.03 372.021 270.286 371.669C269.541 371.303 268.952 370.796 268.519 370.146C268.099 369.483 267.89 368.724 267.89 367.871C267.89 367.005 268.099 366.247 268.519 365.597C268.952 364.947 269.541 364.446 270.286 364.094C271.03 363.729 271.877 363.546 272.824 363.546ZM272.824 365.008C272.202 365.008 271.64 365.13 271.139 365.374C270.651 365.604 270.266 365.936 269.981 366.369C269.697 366.802 269.555 367.303 269.555 367.871C269.555 368.44 269.697 368.941 269.981 369.374C270.266 369.807 270.651 370.146 271.139 370.39C271.64 370.62 272.202 370.735 272.824 370.735C273.461 370.735 274.022 370.62 274.51 370.39C274.997 370.146 275.383 369.807 275.667 369.374C275.952 368.941 276.094 368.44 276.094 367.871C276.094 367.303 275.952 366.802 275.667 366.369C275.383 365.936 274.997 365.604 274.51 365.374C274.022 365.13 273.461 365.008 272.824 365.008ZM280.155 362.206H281.841V380.604H280.155V362.206ZM267.199 376.583L266.976 375.162C268.099 375.162 269.331 375.155 270.672 375.142C272.012 375.114 273.393 375.06 274.814 374.979C276.249 374.884 277.63 374.735 278.957 374.532L279.099 375.771C277.718 376.028 276.317 376.218 274.896 376.34C273.488 376.448 272.127 376.516 270.814 376.543C269.501 376.57 268.296 376.583 267.199 376.583ZM295.764 363.952H297.166V365.414C297.166 366.524 296.949 367.56 296.516 368.521C296.083 369.483 295.473 370.322 294.688 371.039C293.916 371.743 293.016 372.285 291.987 372.664L291.114 371.324C292.035 370.999 292.84 370.539 293.531 369.943C294.235 369.347 294.783 368.663 295.176 367.892C295.568 367.107 295.764 366.281 295.764 365.414V363.952ZM296.089 363.952H297.47V365.414C297.47 366.024 297.579 366.612 297.795 367.181C298.025 367.75 298.35 368.284 298.77 368.785C299.19 369.273 299.677 369.706 300.232 370.085C300.801 370.451 301.423 370.748 302.1 370.979L301.247 372.299C300.232 371.96 299.339 371.452 298.567 370.775C297.795 370.099 297.186 369.3 296.739 368.379C296.306 367.459 296.089 366.47 296.089 365.414V363.952ZM291.561 363.485H301.613V364.866H291.561V363.485ZM304.233 362.226H305.918V372.908H304.233V362.226ZM294.059 373.883H305.918V380.34H294.059V373.883ZM304.273 375.223H295.704V378.959H304.273V375.223ZM309.552 371.121H326.143V372.522H309.552V371.121ZM316.984 372.197H318.67V380.584H316.984V372.197ZM310.892 363.485H315.745V364.866H310.892V363.485ZM315.177 363.485H316.822V364.094C316.822 364.514 316.808 365.083 316.781 365.8C316.754 366.518 316.666 367.377 316.517 368.379C316.382 369.367 316.152 370.491 315.827 371.75L314.161 371.486C314.5 370.281 314.737 369.205 314.872 368.257C315.021 367.31 315.109 366.491 315.136 365.8C315.163 365.096 315.177 364.528 315.177 364.094V363.485ZM318.162 363.485H323.32V364.866H318.162V363.485ZM322.609 363.485H324.275V364.318C324.275 365.008 324.241 365.969 324.173 367.201C324.105 368.433 323.868 369.943 323.462 371.73L321.817 371.466C322.21 369.774 322.44 368.332 322.508 367.14C322.576 365.949 322.609 365.008 322.609 364.318V363.485ZM341.656 362.206H343.321V380.604H341.656V362.206ZM338.163 369.252H342.062V370.654H338.163V369.252ZM328.923 374.776H330.325C331.408 374.776 332.403 374.763 333.31 374.735C334.217 374.708 335.097 374.654 335.95 374.573C336.803 374.492 337.676 374.363 338.569 374.187L338.712 375.588C337.791 375.751 336.898 375.879 336.031 375.974C335.178 376.055 334.285 376.116 333.35 376.157C332.43 376.184 331.421 376.198 330.325 376.198H328.923V374.776ZM328.862 363.912H337.067V370.349H330.589V375.223H328.923V368.968H335.422V365.292H328.862V363.912ZM347.95 364.013H356.398V375.974H347.95V364.013ZM354.773 365.353H349.615V374.614H354.773V365.353ZM360.256 362.206H361.942V380.604H360.256V362.206Z" fill="#594D46"/>
</svg>
