<svg width="291" height="67" viewBox="0 0 291 67" fill="none" xmlns="http://www.w3.org/2000/svg">
<path d="M36.2334 0C41.2754 0.00024695 45.3623 4.08783 45.3623 9.12988V10.2705H47.6455C55.524 10.2705 61.9111 16.6577 61.9111 24.5361V31.4141C63.3801 31.6087 64.5385 32.8176 64.6289 34.335L65.1377 42.8945C65.2448 44.6976 63.8111 46.2185 62.0049 46.2188H61.9111V51.9258C61.9109 59.804 55.5238 66.1904 47.6455 66.1904H14.2656C6.38733 66.1904 0.00025027 59.804 0 51.9258V24.5361C0 16.6577 6.38717 10.2705 14.2656 10.2705H16.5469V9.12988C16.5469 4.08767 20.6345 0 25.6768 0H36.2334ZM14.2656 13.6943C8.278 13.6943 3.42383 18.5485 3.42383 24.5361V51.9258C3.42408 57.9132 8.27816 62.7666 14.2656 62.7666H47.6455C53.633 62.7666 58.4871 57.9132 58.4873 51.9258V46.2188C56.7543 46.2187 55.3489 44.8141 55.3486 43.0811V34.5215C55.3487 32.7883 56.7541 31.3829 58.4873 31.3828V24.5361C58.4873 18.5485 53.6331 13.6943 47.6455 13.6943H14.2656ZM59.6787 39.0859C59.2441 39.0859 58.8782 39.4121 58.8281 39.8438L58.5977 41.8418C58.5393 42.3498 58.9368 42.7949 59.4482 42.7949H61.2627C61.813 42.7949 62.2212 42.2833 62.0977 41.7471L61.6367 39.75C61.5471 39.3617 61.2003 39.0859 60.8018 39.0859H59.6787ZM25.6768 3.42383C22.5254 3.42383 19.9707 5.9785 19.9707 9.12988V10.2705H41.9395V9.12988C41.9395 5.97865 39.3846 3.42408 36.2334 3.42383H25.6768Z" fill="#31302E"/>
<path d="M28.5323 28.8155C28.5323 33.5425 24.7003 37.3746 19.9732 37.3746C15.2461 37.3746 11.4141 33.5425 11.4141 28.8155C11.4141 24.0884 15.2461 20.2563 19.9732 20.2563C24.7003 20.2563 28.5323 24.0884 28.5323 28.8155Z" fill="#F1B9A4"/>
<path d="M32.8086 24.2506C32.8086 22.5174 34.2137 21.1123 35.9469 21.1123H48.7856C50.5189 21.1123 51.924 22.5174 51.924 24.2506V34.2363C51.924 35.9696 50.5189 37.3746 48.7856 37.3746H35.9469C34.2137 37.3746 32.8086 35.9696 32.8086 34.2363V24.2506Z" fill="#EEDECA"/>
<path d="M10.2695 43.6515C10.2695 41.9183 11.6746 40.5132 13.4079 40.5132H26.2466C27.9798 40.5132 29.3849 41.9183 29.3849 43.6515V53.6372C29.3849 55.3704 27.9798 56.7755 26.2466 56.7755H13.4079C11.6746 56.7755 10.2695 55.3704 10.2695 53.6372V43.6515Z" fill="#ABB69E"/>
<path d="M32.8086 50.0709C32.8086 44.7923 37.0877 40.5132 42.3663 40.5132V40.5132C47.6448 40.5132 51.924 44.7923 51.924 50.0709V53.6372C51.924 55.3704 50.5189 56.7755 48.7856 56.7755H35.9469C34.2137 56.7755 32.8086 55.3704 32.8086 53.6372V50.0709Z" fill="#92A3B0"/>
<path d="M110.029 21.7931C111.08 20.7428 112.782 20.7428 113.832 21.7931C114.882 22.8434 114.882 24.5455 113.832 25.5958L103.358 36.0685L115.247 49.2794C116.241 50.3834 116.152 52.0836 115.048 53.0773C113.944 54.0709 112.243 53.9821 111.249 52.8781L99.5488 39.8781L96.3789 43.049V51.8117C96.3789 53.297 95.1748 54.5011 93.6895 54.5011C92.2041 54.5011 91 53.297 91 51.8117V23.9396C91 22.4542 92.2041 21.2492 93.6895 21.2492C95.1748 21.2492 96.3789 22.4542 96.3789 23.9396V35.4425L110.029 21.7931ZM145.728 21.7931C146.778 20.7428 148.481 20.7428 149.531 21.7931C150.581 22.8433 150.581 24.5456 149.531 25.5958L139.057 36.0695L150.946 49.2794C151.94 50.3835 151.85 52.0836 150.746 53.0773C149.642 54.0708 147.942 53.9818 146.948 52.8781L135.248 39.8781L132.077 43.0499V51.8117C132.077 53.297 130.873 54.5011 129.388 54.5011C127.903 54.5009 126.698 53.2969 126.698 51.8117V23.9396C126.698 22.4543 127.903 21.2494 129.388 21.2492C130.873 21.2492 132.077 22.4542 132.077 23.9396V35.4435L145.728 21.7931ZM186.599 21.2492C188.084 21.2492 189.288 22.4542 189.288 23.9396V41.0538C189.288 48.4806 183.268 54.5011 175.841 54.5011C168.414 54.5011 162.394 48.4807 162.394 41.0538V23.9396C162.394 22.4542 163.598 21.2492 165.083 21.2492C166.568 21.2492 167.772 22.4543 167.772 23.9396V41.0538C167.772 45.5099 171.385 49.1222 175.841 49.1222C180.297 49.1222 183.909 45.5099 183.909 41.0538V23.9396C183.909 22.4543 185.113 21.2492 186.599 21.2492ZM217.039 21.2492C222.778 21.2494 227.43 25.902 227.43 31.6408C227.43 36.0556 224.675 39.8238 220.792 41.3292L226.894 49.465C227.785 50.6532 227.544 52.3393 226.356 53.2306C225.168 54.1217 223.482 53.8806 222.591 52.6925L214.596 42.0324H207.381V51.8117C207.381 53.297 206.177 54.5011 204.691 54.5011C203.206 54.5011 202.002 53.297 202.002 51.8117V23.9396C202.002 22.4542 203.206 21.2492 204.691 21.2492H217.039ZM242.832 21.2492C244.317 21.2492 245.521 22.4542 245.521 23.9396V51.8117C245.521 53.297 244.317 54.5011 242.832 54.5011C241.347 54.5009 240.143 53.2969 240.143 51.8117V23.9396C240.143 22.4543 241.347 21.2493 242.832 21.2492ZM259.215 25.2443C259.215 22.1381 263.213 20.876 264.996 23.4191L275.107 37.837L285.22 23.4191L285.305 23.3019C287.127 20.9155 291 22.1867 291 25.2443V51.5675C291 53.0529 289.796 54.257 288.311 54.257C286.825 54.2569 285.621 53.0529 285.621 51.5675V32.214L277.71 43.4943C276.444 45.2989 273.771 45.2989 272.506 43.4943L264.594 32.214V51.5675C264.594 53.0529 263.39 54.257 261.904 54.257C260.419 54.2567 259.215 53.0527 259.215 51.5675V25.2443ZM207.381 36.6525H217.039C219.807 36.6523 222.051 34.4088 222.051 31.6408C222.051 28.8727 219.807 26.6283 217.039 26.6281H207.381V36.6525Z" fill="#32302F"/>
</svg>
