<svg width="135" height="117" viewBox="0 0 135 117" fill="none" xmlns="http://www.w3.org/2000/svg">
<path d="M73.9092 0C80.1702 0 85.2461 5.07587 85.2461 11.3369V12.7539H88.0811C97.8638 12.754 105.794 20.685 105.794 30.4678V39.0039C107.618 39.2454 109.057 40.7512 109.169 42.6357L109.8 53.2637C109.933 55.5026 108.153 57.3914 105.91 57.3916H105.794V64.4775C105.794 74.2602 97.8637 82.1903 88.0811 82.1904H46.6309C36.8482 82.1902 28.9181 74.2602 28.918 64.4775V30.4678C28.918 20.685 36.8482 12.7541 46.6309 12.7539H49.4648V11.3369C49.4648 5.07587 54.5407 0 60.8018 0H73.9092ZM46.6309 17.0049C39.1961 17.0051 33.1689 23.0329 33.1689 30.4678V64.4775C33.1691 71.9123 39.1961 77.9392 46.6309 77.9395H88.0811C95.5159 77.9393 101.543 71.9123 101.543 64.4775V57.3916L101.342 57.3867C99.2829 57.2822 97.6455 55.579 97.6455 53.4941V42.8662C97.6457 40.7815 99.283 39.0791 101.342 38.9746L101.543 38.9697V30.4678C101.543 23.0329 95.5159 17.005 88.0811 17.0049H46.6309ZM103.021 48.5352C102.482 48.5352 102.028 48.9395 101.966 49.4756L101.68 51.9561C101.607 52.587 102.1 53.1406 102.735 53.1406H104.989C105.672 53.1405 106.179 52.5046 106.025 51.8389L105.453 49.3584C105.342 48.8763 104.912 48.5352 104.417 48.5352H103.021ZM60.8018 4.25098C56.8886 4.25098 53.7158 7.42376 53.7158 11.3369V12.7539H80.9951V11.3369C80.9951 7.42376 77.8223 4.25098 73.9092 4.25098H60.8018Z" fill="#31302E"/>
<path d="M64.3499 35.7809C64.3499 41.6507 59.5916 46.409 53.7218 46.409C47.8521 46.409 43.0938 41.6507 43.0938 35.7809C43.0938 29.9112 47.8521 25.1528 53.7218 25.1528C59.5916 25.1528 64.3499 29.9112 64.3499 35.7809Z" fill="#F1B9A4"/>
<path d="M69.6562 30.1128C69.6562 27.9606 71.401 26.2158 73.5532 26.2158H89.4954C91.6476 26.2158 93.3923 27.9606 93.3923 30.1128V42.5122C93.3923 44.6645 91.6476 46.4092 89.4954 46.4092H73.5532C71.401 46.4092 69.6562 44.6645 69.6562 42.5122V30.1128Z" fill="#EEDECA"/>
<path d="M41.6719 54.2036C41.6719 52.0514 43.4166 50.3066 45.5688 50.3066H61.511C63.6632 50.3066 65.4079 52.0514 65.4079 54.2036V66.603C65.4079 68.7553 63.6632 70.5 61.511 70.5H45.5688C43.4166 70.5 41.6719 68.7553 41.6719 66.603V54.2036Z" fill="#ABB69E"/>
<path d="M69.6562 62.1747C69.6562 55.6201 74.9697 50.3066 81.5243 50.3066V50.3066C88.0788 50.3066 93.3923 55.6201 93.3923 62.1747V66.603C93.3923 68.7553 91.6476 70.5 89.4954 70.5H73.5532C71.401 70.5 69.6562 68.7553 69.6562 66.603V62.1747Z" fill="#92A3B0"/>
<path d="M12.8418 93.9745C13.5507 93.2657 14.7002 93.2658 15.4092 93.9745C16.1181 94.6835 16.1181 95.833 15.4092 96.5419L8.33984 103.61L16.3662 112.528C17.0366 113.274 16.9756 114.421 16.2305 115.092C15.4852 115.762 14.3376 115.702 13.667 114.957L5.76855 106.182L3.63086 108.32V114.237C3.63086 115.24 2.81803 116.053 1.81543 116.053C0.812813 116.053 -4.38258e-08 115.24 0 114.237V95.4238C4.38258e-08 94.4212 0.812813 93.6083 1.81543 93.6083C2.81803 93.6084 3.63086 94.4212 3.63086 95.4238V103.185L12.8418 93.9745ZM36.9404 93.9745C37.6494 93.2657 38.7989 93.2656 39.5078 93.9745C40.2167 94.6835 40.2167 95.833 39.5078 96.5419L32.4385 103.61L40.4639 112.528C41.1345 113.273 41.0742 114.421 40.3291 115.092C39.584 115.762 38.4364 115.702 37.7656 114.957L29.8672 106.182L27.7285 108.321V114.237C27.7285 115.24 26.9157 116.053 25.9131 116.053C24.9107 116.052 24.0986 115.24 24.0986 114.237V95.4238C24.0986 94.4213 24.9107 93.6086 25.9131 93.6083C26.9157 93.6083 27.7285 94.4212 27.7285 95.4238V103.186L36.9404 93.9745ZM64.5312 93.6083C65.5338 93.6084 66.3467 94.4212 66.3467 95.4238V106.977C66.3464 111.989 62.2825 116.053 57.2695 116.053C52.2566 116.053 48.1926 111.989 48.1924 106.977V95.4238C48.1924 94.4212 49.0053 93.6084 50.0078 93.6083C51.0104 93.6083 51.8232 94.4212 51.8232 95.4238V106.977C51.8235 109.984 54.2618 112.422 57.2695 112.422C60.2772 112.422 62.7156 109.984 62.7158 106.977V95.4238C62.7158 94.4212 63.5286 93.6083 64.5312 93.6083ZM85.0791 93.6083C88.9528 93.6083 92.0927 96.7483 92.0928 100.622C92.0928 103.603 90.2327 106.148 87.6104 107.163L91.7275 112.653C92.3291 113.455 92.1672 114.594 91.3652 115.195C90.5632 115.797 89.4248 115.634 88.8232 114.832L83.4268 107.637H78.5605V114.237C78.5605 115.24 77.7476 116.053 76.7451 116.053C75.7425 116.053 74.9297 115.24 74.9297 114.237V95.4238C74.9297 94.4837 75.644 93.7099 76.5596 93.6171C76.6205 93.611 76.6826 93.6083 76.7451 93.6083H85.0791ZM102.489 93.6083C103.492 93.6083 104.305 94.4212 104.305 95.4238V114.237C104.305 115.24 103.492 116.053 102.489 116.053C101.487 116.053 100.674 115.24 100.674 114.237V95.4238C100.674 94.4212 101.487 93.6084 102.489 93.6083ZM113.544 96.3046C113.544 94.208 116.242 93.3556 117.446 95.0722L124.271 104.805L131.097 95.0722L131.154 94.9931C132.384 93.3822 134.999 94.2408 134.999 96.3046V114.072C134.999 115.075 134.186 115.888 133.184 115.888C132.181 115.888 131.368 115.075 131.368 114.072V101.009L126.028 108.623C125.174 109.841 123.37 109.841 122.516 108.623L117.175 101.009V114.072C117.175 115.075 116.362 115.888 115.359 115.888C114.357 115.887 113.544 115.075 113.544 114.072V96.3046ZM78.5605 104.006H85.0791C86.9476 104.006 88.4619 102.491 88.4619 100.622C88.4618 98.7536 86.9476 97.2392 85.0791 97.2392H78.5605V104.006Z" fill="#32302F"/>
</svg>
