<svg width="800" height="800" viewBox="0 0 800 800" fill="none" xmlns="http://www.w3.org/2000/svg">
<g clip-path="url(#clip0_2_14685)">
<path d="M721.24 559.03L653.64 519.99C652.41 522.11 650.64 523.92 648.44 525.19L641.34 529.29H641.33L627.11 537.5L612.89 545.71L598.67 553.92L584.45 562.13H584.44L570.22 570.35L556 578.55L541.78 586.77L527.56 594.98H527.55L513.34 603.19H513.33L499.11 611.4L484.89 619.61L470.67 627.82L456.45 636.03H456.44L442.22 644.25L428 652.46L413.78 660.67L399.56 668.88L385.33 677.09L371.12 685.3H371.11L356.89 693.51L342.67 701.72L342.66 701.73L337.09 704.94C332.93 707.34 328.02 707.86 323.52 706.53L385.04 742.5C394.29 747.91 405.72 747.93 414.99 742.56L721.24 565.24C723.63 563.86 723.63 560.41 721.24 559.03Z" fill="#DFE9ED"/>
<path d="M612.89 512.85L603.41 507.38L612.89 512.85Z" fill="#DFE9ED"/>
<path d="M271.56 660.67V660.65L271.55 660.66L271.56 660.67Z" fill="#DFE9ED"/>
<path d="M243.11 611.39L228.89 619.6L243.11 611.39Z" fill="#DFE9ED"/>
<path d="M228.89 636.03V636.02H228.88L228.89 636.03Z" fill="#DFE9ED"/>
<mask id="mask0_2_14685" style="mask-type:luminance" maskUnits="userSpaceOnUse" x="634" y="500" width="1" height="1">
<path d="M634.68 500.27L634.64 500.29L634.63 500.3L634.68 500.27Z" fill="white"/>
</mask>
<g mask="url(#mask0_2_14685)">
<path d="M660.74 466.109H619.44V507.409H660.74V466.109Z" fill="#77552C"/>
</g>
<mask id="mask1_2_14685" style="mask-type:luminance" maskUnits="userSpaceOnUse" x="584" y="167" width="29" height="330">
<path d="M584.44 184.41V217.25V233.67V250.09V266.52V282.93V299.36V332.2V365.05V414.32V430.74V447.16V480.01L612.89 496.45V463.59V430.75V348.64V315.79V299.37V282.95V250.1V200.84V181.18C609.29 181.18 605.69 180.25 602.46 178.39L598.67 176.2H598.66L584.44 167.99V184.4V184.41Z" fill="white"/>
</mask>
<g mask="url(#mask1_2_14685)">
<path d="M619.45 135.74H578.15V177.04H619.45V135.74Z" fill="#A07F57"/>
<path d="M619.45 177.04H578.15V218.34H619.45V177.04Z" fill="#A07F57"/>
<path d="M619.45 218.33H578.15V259.63H619.45V218.33Z" fill="#A07F57"/>
<path d="M619.45 259.63H578.15V300.93H619.45V259.63Z" fill="#A07F57"/>
<path d="M619.45 300.931H578.15V342.231H619.45V300.931Z" fill="#A07F57"/>
<path d="M619.45 342.221H578.15V383.521H619.45V342.221Z" fill="#A07F57"/>
<path d="M619.45 383.521H578.15V424.821H619.45V383.521Z" fill="#A07F57"/>
<path d="M619.45 424.811H578.15V466.111H619.45V424.811Z" fill="#A07F57"/>
<path d="M619.45 466.11H578.15V507.41H619.45V466.11Z" fill="#A07F57"/>
<path d="M619.45 342.221H578.15V383.521H619.45V342.221Z" fill="#A07F57"/>
<path d="M619.45 466.11H578.15V507.41H619.45V466.11Z" fill="#A07F57"/>
</g>
<path d="M584.44 496.42V496.43H584.45L589.19 499.17L598.67 504.64V504.65L603.41 507.38L612.89 512.85V496.45L584.44 480.01V496.42Z" fill="#DFE9ED"/>
<mask id="mask2_2_14685" style="mask-type:luminance" maskUnits="userSpaceOnUse" x="584" y="480" width="29" height="33">
<path d="M584.44 496.42V496.43H584.45L589.19 499.17L598.67 504.64V504.65L603.41 507.38L612.89 512.85V496.45L584.44 480.01V496.42Z" fill="white"/>
</mask>
<g mask="url(#mask2_2_14685)">
<path d="M619.45 466.109H578.15V507.409H619.45V466.109Z" fill="#A07F57"/>
<path d="M619.45 507.409H578.15V548.709H619.45V507.409Z" fill="#A07F57"/>
</g>
<mask id="mask3_2_14685" style="mask-type:luminance" maskUnits="userSpaceOnUse" x="513" y="130" width="29" height="342">
<path d="M513.33 143.35V192.61V241.88V258.31V291.15V307.57V356.84V406.11V455.37H513.34L520.44 459.47L527.54 463.57H527.55L537.03 469.05L541.77 471.79V455.37V406.11V373.26V356.84V225.46V192.61V143.35L541.76 143.34L527.55 135.14H527.54L525.76 134.11C521.91 131.89 517.61 130.78 513.32 130.78V143.35H513.33Z" fill="white"/>
</mask>
<g mask="url(#mask3_2_14685)">
<path d="M578.15 94.4404H536.85V135.74H578.15V94.4404Z" fill="#A07F57"/>
<path d="M578.15 135.74H536.85V177.04H578.15V135.74Z" fill="#A07F57"/>
<path d="M578.15 177.04H536.85V218.34H578.15V177.04Z" fill="#A07F57"/>
<path d="M578.15 218.33H536.85V259.63H578.15V218.33Z" fill="#A07F57"/>
<path d="M578.15 259.631H536.85V300.931H578.15V259.631Z" fill="#A07F57"/>
<path d="M578.15 300.931H536.85V342.231H578.15V300.931Z" fill="#A07F57"/>
<path d="M578.15 342.221H536.85V383.521H578.15V342.221Z" fill="#A07F57"/>
<path d="M578.15 383.521H536.85V424.821H578.15V383.521Z" fill="#A07F57"/>
<path d="M578.15 424.811H536.85V466.111H578.15V424.811Z" fill="#A07F57"/>
<path d="M578.15 466.11H536.85V507.41H578.15V466.11Z" fill="#A07F57"/>
<path d="M536.86 94.4404H495.56V135.74H536.86V94.4404Z" fill="#A07F57"/>
<path d="M536.86 135.74H495.56V177.04H536.86V135.74Z" fill="#A07F57"/>
<path d="M536.86 177.04H495.56V218.34H536.86V177.04Z" fill="#A07F57"/>
<path d="M536.86 218.33H495.56V259.63H536.86V218.33Z" fill="#A07F57"/>
<path d="M536.86 259.631H495.56V300.931H536.86V259.631Z" fill="#A07F57"/>
<path d="M536.86 300.931H495.56V342.231H536.86V300.931Z" fill="#A07F57"/>
<path d="M536.86 342.221H495.56V383.521H536.86V342.221Z" fill="#A07F57"/>
<path d="M536.86 383.521H495.56V424.821H536.86V383.521Z" fill="#A07F57"/>
<path d="M536.86 424.811H495.56V466.111H536.86V424.811Z" fill="#A07F57"/>
<path d="M536.86 466.11H495.56V507.41H536.86V466.11Z" fill="#A07F57"/>
<path d="M536.86 259.631H495.56V300.931H536.86V259.631Z" fill="#A07F57"/>
</g>
<path d="M337.09 704.93L342.66 701.72H342.67L356.89 693.5V660.66H356.88L342.67 668.86L328.44 677.08L314.23 668.87H314.22L304.74 663.4L300 660.66L285.78 652.45L285.77 652.44L271.56 644.24L257.33 636.02L243.11 627.81L228.89 619.6V612.93L197.24 626.02C194.5 627.15 194.24 630.94 196.8 632.44L323.52 706.53C328.02 707.86 332.93 707.34 337.09 704.94V704.93ZM228.89 636.03H228.88L228.89 636.02V636.03ZM271.56 660.67H271.55L271.56 660.65V660.67Z" fill="#DFE9ED"/>
<mask id="mask4_2_14685" style="mask-type:luminance" maskUnits="userSpaceOnUse" x="195" y="612" width="162" height="96">
<path d="M337.09 704.93L342.66 701.72H342.67L356.89 693.5V660.66H356.88L342.67 668.86L328.44 677.08L314.23 668.87H314.22L304.74 663.4L300 660.66L285.78 652.45L285.77 652.44L271.56 644.24L257.33 636.02L243.11 627.81L228.89 619.6V612.93L197.24 626.02C194.5 627.15 194.24 630.94 196.8 632.44L323.52 706.53C328.02 707.86 332.93 707.34 337.09 704.94V704.93ZM228.89 636.03H228.88L228.89 636.02V636.03ZM271.56 660.67H271.55L271.56 660.65V660.67Z" fill="white"/>
</mask>
<g mask="url(#mask4_2_14685)">
<path d="M371.67 590H330.37V631.3H371.67V590Z" fill="#A07F57"/>
<path d="M371.67 631.3H330.37V672.6H371.67V631.3Z" fill="#A07F57"/>
<path d="M371.67 672.59H330.37V713.89H371.67V672.59Z" fill="#A07F57"/>
<path d="M330.37 590H289.07V631.3H330.37V590Z" fill="#A07F57"/>
<path d="M330.37 631.3H289.07V672.6H330.37V631.3Z" fill="#A07F57"/>
<path d="M330.37 672.59H289.07V713.89H330.37V672.59Z" fill="#A07F57"/>
<path d="M289.08 590H247.78V631.3H289.08V590Z" fill="#A07F57"/>
<path d="M289.08 631.3H247.78V672.6H289.08V631.3Z" fill="#A07F57"/>
<path d="M289.08 672.59H247.78V713.89H289.08V672.59Z" fill="#A07F57"/>
<path d="M247.78 590H206.48V631.3H247.78V590Z" fill="#A07F57"/>
<path d="M247.78 631.3H206.48V672.6H247.78V631.3Z" fill="#A07F57"/>
<path d="M247.78 672.59H206.48V713.89H247.78V672.59Z" fill="#A07F57"/>
<path d="M206.49 590H165.19V631.3H206.49V590Z" fill="#A07F57"/>
<path d="M206.49 631.3H165.19V672.6H206.49V631.3Z" fill="#A07F57"/>
<path d="M206.49 672.59H165.19V713.89H206.49V672.59Z" fill="#A07F57"/>
<path d="M247.78 631.3H206.48V672.6H247.78V631.3Z" fill="#A07F57"/>
<path d="M289.08 631.3H247.78V672.6H289.08V631.3Z" fill="#A07F57"/>
</g>
<mask id="mask5_2_14685" style="mask-type:luminance" maskUnits="userSpaceOnUse" x="328" y="150" width="107" height="76">
<path d="M342.67 225.46L356.89 217.25L371.11 209.04H371.12L385.33 200.83L399.56 192.62L413.78 184.41L429.05 175.6L434.4 172.51L433.81 172.85C432.01 173.89 430 174.41 428 174.41C426 174.41 423.99 173.89 422.19 172.85L413.78 168H413.77L399.56 159.79L389.26 153.84C388.04 153.14 387.06 152.14 386.38 150.96L371.12 159.78H371.11L356.89 167.99L342.67 176.2L342.66 176.21L328.45 184.42H328.44V200.84H328.45L329.01 201.16L333.55 203.78L334.31 204.22C336.9 205.71 338.99 207.84 340.43 210.34C341.87 212.84 342.67 215.72 342.67 218.71V225.47V225.46Z" fill="white"/>
</mask>
<g mask="url(#mask5_2_14685)">
<path d="M454.26 135.74H412.96V177.04H454.26V135.74Z" fill="#C6A76F"/>
<path d="M454.26 177.04H412.96V218.34H454.26V177.04Z" fill="#C6A76F"/>
<path d="M454.26 218.33H412.96V259.63H454.26V218.33Z" fill="#C6A76F"/>
<path d="M412.97 135.74H371.67V177.04H412.97V135.74Z" fill="#C6A76F"/>
<path d="M412.97 177.04H371.67V218.34H412.97V177.04Z" fill="#C6A76F"/>
<path d="M412.97 218.33H371.67V259.63H412.97V218.33Z" fill="#C6A76F"/>
<path d="M371.67 135.74H330.37V177.04H371.67V135.74Z" fill="#C6A76F"/>
<path d="M371.67 177.04H330.37V218.34H371.67V177.04Z" fill="#C6A76F"/>
<path d="M371.67 218.33H330.37V259.63H371.67V218.33Z" fill="#C6A76F"/>
<path d="M330.37 135.74H289.07V177.04H330.37V135.74Z" fill="#C6A76F"/>
<path d="M330.37 177.04H289.07V218.34H330.37V177.04Z" fill="#C6A76F"/>
<path d="M330.37 218.33H289.07V259.63H330.37V218.33Z" fill="#C6A76F"/>
<path d="M412.97 135.74H371.67V177.04H412.97V135.74Z" fill="#C6A76F"/>
</g>
<mask id="mask6_2_14685" style="mask-type:luminance" maskUnits="userSpaceOnUse" x="228" y="130" width="286" height="483">
<path d="M271.56 594.97L285.78 586.76L300 578.55L304.74 575.81L314.22 570.34L328.44 562.13H328.45L337.93 556.66L342.67 553.92L356.89 545.71L371.11 537.5H371.12L385.33 529.29H385.34L399.56 521.08L404.3 518.34L413.78 512.87L428 504.66L437.48 499.18L442.22 496.45L456.44 488.24L456.45 488.23L470.67 480.02L484.89 471.81L489.63 469.07L499.11 463.6L513.33 455.39V406.13V356.86V307.59V291.17V258.33V241.9V192.63V143.37V130.79C509.03 130.79 504.74 131.9 500.89 134.12L500.7 134.23L499.11 135.15L484.89 143.36L470.67 151.57L456.45 159.78H456.44L442.22 167.99L434.4 172.52L429.04 175.61L427.99 176.21L413.77 184.41L399.55 192.63L385.32 200.84L371.11 209.05H371.1L356.88 217.26L342.66 225.47L328.43 233.69L314.21 241.89L299.99 250.11L297.56 251.51L297.51 251.54L285.77 258.32H285.76L271.55 266.53L257.32 274.74L243.1 282.95L238.76 285.46C235.7 287.22 232.29 288.1 228.88 288.1V323.99V373.26V537.49V586.75V612.93L269.62 596.09L271.55 594.98L271.56 594.97ZM399.56 274.72V274.74H399.55L399.56 274.72ZM243.11 299.37L243.12 299.36H243.11V299.37ZM257.33 406.12L257.34 406.11H257.33V406.12Z" fill="white"/>
</mask>
<g mask="url(#mask6_2_14685)">
<path d="M536.86 94.4404H495.56V135.74H536.86V94.4404Z" fill="#77552C"/>
<path d="M536.86 135.74H495.56V177.04H536.86V135.74Z" fill="#77552C"/>
<path d="M536.86 177.04H495.56V218.34H536.86V177.04Z" fill="#77552C"/>
<path d="M536.86 218.33H495.56V259.63H536.86V218.33Z" fill="#77552C"/>
<path d="M536.86 259.631H495.56V300.931H536.86V259.631Z" fill="#77552C"/>
<path d="M536.86 300.931H495.56V342.231H536.86V300.931Z" fill="#77552C"/>
<path d="M536.86 342.221H495.56V383.521H536.86V342.221Z" fill="#77552C"/>
<path d="M536.86 383.521H495.56V424.821H536.86V383.521Z" fill="#77552C"/>
<path d="M536.86 424.811H495.56V466.111H536.86V424.811Z" fill="#77552C"/>
<path d="M536.86 466.11H495.56V507.41H536.86V466.11Z" fill="#77552C"/>
<path d="M536.86 507.41H495.56V548.71H536.86V507.41Z" fill="#77552C"/>
<path d="M536.86 548.7H495.56V590H536.86V548.7Z" fill="#77552C"/>
<path d="M536.86 590H495.56V631.3H536.86V590Z" fill="#77552C"/>
<path d="M495.56 94.4404H454.26V135.74H495.56V94.4404Z" fill="#77552C"/>
<path d="M495.56 135.74H454.26V177.04H495.56V135.74Z" fill="#77552C"/>
<path d="M495.56 177.04H454.26V218.34H495.56V177.04Z" fill="#77552C"/>
<path d="M495.56 218.33H454.26V259.63H495.56V218.33Z" fill="#77552C"/>
<path d="M495.56 259.631H454.26V300.931H495.56V259.631Z" fill="#77552C"/>
<path d="M495.56 300.931H454.26V342.231H495.56V300.931Z" fill="#77552C"/>
<path d="M495.56 342.221H454.26V383.521H495.56V342.221Z" fill="#77552C"/>
<path d="M495.56 383.521H454.26V424.821H495.56V383.521Z" fill="#77552C"/>
<path d="M495.56 424.811H454.26V466.111H495.56V424.811Z" fill="#77552C"/>
<path d="M495.56 466.11H454.26V507.41H495.56V466.11Z" fill="#77552C"/>
<path d="M495.56 507.41H454.26V548.71H495.56V507.41Z" fill="#77552C"/>
<path d="M495.56 548.7H454.26V590H495.56V548.7Z" fill="#77552C"/>
<path d="M495.56 590H454.26V631.3H495.56V590Z" fill="#77552C"/>
<path d="M454.26 94.4404H412.96V135.74H454.26V94.4404Z" fill="#77552C"/>
<path d="M454.26 135.74H412.96V177.04H454.26V135.74Z" fill="#77552C"/>
<path d="M454.26 177.04H412.96V218.34H454.26V177.04Z" fill="#77552C"/>
<path d="M454.26 218.33H412.96V259.63H454.26V218.33Z" fill="#77552C"/>
<path d="M454.26 259.631H412.96V300.931H454.26V259.631Z" fill="#77552C"/>
<path d="M454.26 300.931H412.96V342.231H454.26V300.931Z" fill="#77552C"/>
<path d="M454.26 342.221H412.96V383.521H454.26V342.221Z" fill="#77552C"/>
<path d="M454.26 383.521H412.96V424.821H454.26V383.521Z" fill="#77552C"/>
<path d="M454.26 424.811H412.96V466.111H454.26V424.811Z" fill="#77552C"/>
<path d="M454.26 466.11H412.96V507.41H454.26V466.11Z" fill="#77552C"/>
<path d="M454.26 507.41H412.96V548.71H454.26V507.41Z" fill="#77552C"/>
<path d="M454.26 548.7H412.96V590H454.26V548.7Z" fill="#77552C"/>
<path d="M454.26 590H412.96V631.3H454.26V590Z" fill="#77552C"/>
<path d="M412.97 94.4404H371.67V135.74H412.97V94.4404Z" fill="#77552C"/>
<path d="M412.97 135.74H371.67V177.04H412.97V135.74Z" fill="#77552C"/>
<path d="M412.97 177.04H371.67V218.34H412.97V177.04Z" fill="#77552C"/>
<path d="M412.97 218.33H371.67V259.63H412.97V218.33Z" fill="#77552C"/>
<path d="M412.97 259.631H371.67V300.931H412.97V259.631Z" fill="#77552C"/>
<path d="M412.97 300.931H371.67V342.231H412.97V300.931Z" fill="#77552C"/>
<path d="M412.97 342.221H371.67V383.521H412.97V342.221Z" fill="#77552C"/>
<path d="M412.97 383.521H371.67V424.821H412.97V383.521Z" fill="#77552C"/>
<path d="M412.97 424.811H371.67V466.111H412.97V424.811Z" fill="#77552C"/>
<path d="M412.97 466.11H371.67V507.41H412.97V466.11Z" fill="#77552C"/>
<path d="M412.97 507.41H371.67V548.71H412.97V507.41Z" fill="#77552C"/>
<path d="M412.97 548.7H371.67V590H412.97V548.7Z" fill="#77552C"/>
<path d="M412.97 590H371.67V631.3H412.97V590Z" fill="#77552C"/>
<path d="M371.67 94.4404H330.37V135.74H371.67V94.4404Z" fill="#77552C"/>
<path d="M371.67 135.74H330.37V177.04H371.67V135.74Z" fill="#77552C"/>
<path d="M371.67 177.04H330.37V218.34H371.67V177.04Z" fill="#77552C"/>
<path d="M371.67 218.33H330.37V259.63H371.67V218.33Z" fill="#77552C"/>
<path d="M371.67 259.631H330.37V300.931H371.67V259.631Z" fill="#77552C"/>
<path d="M371.67 300.931H330.37V342.231H371.67V300.931Z" fill="#77552C"/>
<path d="M371.67 342.221H330.37V383.521H371.67V342.221Z" fill="#77552C"/>
<path d="M371.67 383.521H330.37V424.821H371.67V383.521Z" fill="#77552C"/>
<path d="M371.67 424.811H330.37V466.111H371.67V424.811Z" fill="#77552C"/>
<path d="M371.67 466.11H330.37V507.41H371.67V466.11Z" fill="#77552C"/>
<path d="M371.67 507.41H330.37V548.71H371.67V507.41Z" fill="#77552C"/>
<path d="M371.67 548.7H330.37V590H371.67V548.7Z" fill="#77552C"/>
<path d="M371.67 590H330.37V631.3H371.67V590Z" fill="#77552C"/>
<path d="M330.37 94.4404H289.07V135.74H330.37V94.4404Z" fill="#77552C"/>
<path d="M330.37 135.74H289.07V177.04H330.37V135.74Z" fill="#77552C"/>
<path d="M330.37 177.04H289.07V218.34H330.37V177.04Z" fill="#77552C"/>
<path d="M330.37 218.33H289.07V259.63H330.37V218.33Z" fill="#77552C"/>
<path d="M330.37 259.631H289.07V300.931H330.37V259.631Z" fill="#77552C"/>
<path d="M330.37 300.931H289.07V342.231H330.37V300.931Z" fill="#77552C"/>
<path d="M330.37 342.221H289.07V383.521H330.37V342.221Z" fill="#77552C"/>
<path d="M330.37 383.521H289.07V424.821H330.37V383.521Z" fill="#77552C"/>
<path d="M330.37 424.811H289.07V466.111H330.37V424.811Z" fill="#77552C"/>
<path d="M330.37 466.11H289.07V507.41H330.37V466.11Z" fill="#77552C"/>
<path d="M330.37 507.41H289.07V548.71H330.37V507.41Z" fill="#77552C"/>
<path d="M330.37 548.7H289.07V590H330.37V548.7Z" fill="#77552C"/>
<path d="M330.37 590H289.07V631.3H330.37V590Z" fill="#77552C"/>
<path d="M289.08 94.4404H247.78V135.74H289.08V94.4404Z" fill="#77552C"/>
<path d="M289.08 135.74H247.78V177.04H289.08V135.74Z" fill="#77552C"/>
<path d="M289.08 177.04H247.78V218.34H289.08V177.04Z" fill="#77552C"/>
<path d="M289.08 218.33H247.78V259.63H289.08V218.33Z" fill="#77552C"/>
<path d="M289.08 259.631H247.78V300.931H289.08V259.631Z" fill="#77552C"/>
<path d="M289.08 300.931H247.78V342.231H289.08V300.931Z" fill="#77552C"/>
<path d="M289.08 342.221H247.78V383.521H289.08V342.221Z" fill="#77552C"/>
<path d="M289.08 383.521H247.78V424.821H289.08V383.521Z" fill="#77552C"/>
<path d="M289.08 424.811H247.78V466.111H289.08V424.811Z" fill="#77552C"/>
<path d="M289.08 466.11H247.78V507.41H289.08V466.11Z" fill="#77552C"/>
<path d="M289.08 507.41H247.78V548.71H289.08V507.41Z" fill="#77552C"/>
<path d="M289.08 548.7H247.78V590H289.08V548.7Z" fill="#77552C"/>
<path d="M289.08 590H247.78V631.3H289.08V590Z" fill="#77552C"/>
<path d="M247.78 94.4404H206.48V135.74H247.78V94.4404Z" fill="#77552C"/>
<path d="M247.78 135.74H206.48V177.04H247.78V135.74Z" fill="#77552C"/>
<path d="M247.78 177.04H206.48V218.34H247.78V177.04Z" fill="#77552C"/>
<path d="M247.78 218.33H206.48V259.63H247.78V218.33Z" fill="#77552C"/>
<path d="M247.78 259.631H206.48V300.931H247.78V259.631Z" fill="#77552C"/>
<path d="M247.78 300.931H206.48V342.231H247.78V300.931Z" fill="#77552C"/>
<path d="M247.78 342.221H206.48V383.521H247.78V342.221Z" fill="#77552C"/>
<path d="M247.78 383.521H206.48V424.821H247.78V383.521Z" fill="#77552C"/>
<path d="M247.78 424.811H206.48V466.111H247.78V424.811Z" fill="#77552C"/>
<path d="M247.78 466.11H206.48V507.41H247.78V466.11Z" fill="#77552C"/>
<path d="M247.78 507.41H206.48V548.71H247.78V507.41Z" fill="#77552C"/>
<path d="M247.78 548.7H206.48V590H247.78V548.7Z" fill="#77552C"/>
<path d="M247.78 590H206.48V631.3H247.78V590Z" fill="#77552C"/>
<path d="M412.97 259.631H371.67V300.931H412.97V259.631Z" fill="#77552C"/>
<path d="M412.97 300.931H371.67V342.231H412.97V300.931Z" fill="#77552C"/>
<path d="M412.97 466.11H371.67V507.41H412.97V466.11Z" fill="#77552C"/>
<path d="M371.67 259.631H330.37V300.931H371.67V259.631Z" fill="#77552C"/>
<path d="M330.37 383.521H289.07V424.821H330.37V383.521Z" fill="#77552C"/>
<path d="M289.08 259.631H247.78V300.931H289.08V259.631Z" fill="#77552C"/>
<path d="M247.78 259.631H206.48V300.931H247.78V259.631Z" fill="#77552C"/>
<path d="M289.08 383.521H247.78V424.821H289.08V383.521Z" fill="#77552C"/>
</g>
<path d="M243.12 611.39L252.59 605.92L257.33 603.18L269.63 596.08L228.89 612.93V619.6L243.11 611.39H243.12Z" fill="#DFE9ED"/>
<mask id="mask7_2_14685" style="mask-type:luminance" maskUnits="userSpaceOnUse" x="228" y="596" width="42" height="24">
<path d="M243.12 611.39L252.59 605.92L257.33 603.18L269.63 596.08L228.89 612.93V619.6L243.11 611.39H243.12Z" fill="white"/>
</mask>
<g mask="url(#mask7_2_14685)">
<path d="M289.08 590H247.78V631.3H289.08V590Z" fill="#77552C"/>
<path d="M247.78 590H206.48V631.3H247.78V590Z" fill="#77552C"/>
</g>
<mask id="mask8_2_14685" style="mask-type:luminance" maskUnits="userSpaceOnUse" x="429" y="172" width="6" height="4">
<path d="M434.4 172.51L429.05 175.6L434.4 172.51Z" fill="white"/>
</mask>
<g mask="url(#mask8_2_14685)">
<path d="M454.26 135.74H412.96V177.04H454.26V135.74Z" fill="#C6A76F"/>
</g>
<mask id="mask9_2_14685" style="mask-type:luminance" maskUnits="userSpaceOnUse" x="429" y="172" width="6" height="4">
<path d="M434.4 172.51L429.05 175.6L434.4 172.51Z" fill="white"/>
</mask>
<g mask="url(#mask9_2_14685)">
<path d="M454.26 135.74H412.96V177.04H454.26V135.74Z" fill="#77552C"/>
</g>
<mask id="mask10_2_14685" style="mask-type:luminance" maskUnits="userSpaceOnUse" x="186" y="315" width="138" height="392">
<path d="M197.24 626.01L228.89 612.92V586.75V537.49V373.26H228.88L228.89 373.25V340.41L223.52 339.3C208.65 336.23 195.4 327.88 186.22 315.78V430.73V463.57V496.42V512.84V545.69V562.11V578.53V614.55C186.22 622.75 190.59 630.32 197.69 634.42L200.44 636.01H200.45L214.66 644.22H214.67L228.89 652.43L243.11 660.64L243.12 660.65L257.33 668.85L271.56 677.07L285.78 685.28L300 693.49L314.22 701.7L319.79 704.92C320.98 705.61 322.23 706.13 323.52 706.51L196.8 632.42C194.24 630.92 194.5 627.14 197.24 626V626.01Z" fill="white"/>
</mask>
<g mask="url(#mask10_2_14685)">
<path d="M330.37 300.931H289.07V342.231H330.37V300.931Z" fill="#A07F57"/>
<path d="M330.37 342.221H289.07V383.521H330.37V342.221Z" fill="#A07F57"/>
<path d="M330.37 383.521H289.07V424.821H330.37V383.521Z" fill="#A07F57"/>
<path d="M330.37 424.811H289.07V466.111H330.37V424.811Z" fill="#A07F57"/>
<path d="M330.37 466.11H289.07V507.41H330.37V466.11Z" fill="#A07F57"/>
<path d="M330.37 507.411H289.07V548.711H330.37V507.411Z" fill="#A07F57"/>
<path d="M330.37 548.701H289.07V590.001H330.37V548.701Z" fill="#A07F57"/>
<path d="M330.37 590.001H289.07V631.301H330.37V590.001Z" fill="#A07F57"/>
<path d="M330.37 631.301H289.07V672.601H330.37V631.301Z" fill="#A07F57"/>
<path d="M330.37 672.591H289.07V713.891H330.37V672.591Z" fill="#A07F57"/>
<path d="M289.08 300.931H247.78V342.231H289.08V300.931Z" fill="#A07F57"/>
<path d="M289.08 342.221H247.78V383.521H289.08V342.221Z" fill="#A07F57"/>
<path d="M289.08 383.521H247.78V424.821H289.08V383.521Z" fill="#A07F57"/>
<path d="M289.08 424.811H247.78V466.111H289.08V424.811Z" fill="#A07F57"/>
<path d="M289.08 466.11H247.78V507.41H289.08V466.11Z" fill="#A07F57"/>
<path d="M289.08 507.411H247.78V548.711H289.08V507.411Z" fill="#A07F57"/>
<path d="M289.08 548.701H247.78V590.001H289.08V548.701Z" fill="#A07F57"/>
<path d="M289.08 590.001H247.78V631.301H289.08V590.001Z" fill="#A07F57"/>
<path d="M289.08 631.301H247.78V672.601H289.08V631.301Z" fill="#A07F57"/>
<path d="M289.08 672.591H247.78V713.891H289.08V672.591Z" fill="#A07F57"/>
<path d="M247.78 300.931H206.48V342.231H247.78V300.931Z" fill="#A07F57"/>
<path d="M247.78 342.221H206.48V383.521H247.78V342.221Z" fill="#A07F57"/>
<path d="M247.78 383.521H206.48V424.821H247.78V383.521Z" fill="#A07F57"/>
<path d="M247.78 424.811H206.48V466.111H247.78V424.811Z" fill="#A07F57"/>
<path d="M247.78 466.11H206.48V507.41H247.78V466.11Z" fill="#A07F57"/>
<path d="M247.78 507.411H206.48V548.711H247.78V507.411Z" fill="#A07F57"/>
<path d="M247.78 548.701H206.48V590.001H247.78V548.701Z" fill="#A07F57"/>
<path d="M247.78 590.001H206.48V631.301H247.78V590.001Z" fill="#A07F57"/>
<path d="M247.78 631.301H206.48V672.601H247.78V631.301Z" fill="#A07F57"/>
<path d="M247.78 672.591H206.48V713.891H247.78V672.591Z" fill="#A07F57"/>
<path d="M206.49 300.931H165.19V342.231H206.49V300.931Z" fill="#A07F57"/>
<path d="M206.49 342.221H165.19V383.521H206.49V342.221Z" fill="#A07F57"/>
<path d="M206.49 383.521H165.19V424.821H206.49V383.521Z" fill="#A07F57"/>
<path d="M206.49 424.811H165.19V466.111H206.49V424.811Z" fill="#A07F57"/>
<path d="M206.49 466.11H165.19V507.41H206.49V466.11Z" fill="#A07F57"/>
<path d="M206.49 507.411H165.19V548.711H206.49V507.411Z" fill="#A07F57"/>
<path d="M206.49 548.701H165.19V590.001H206.49V548.701Z" fill="#A07F57"/>
<path d="M206.49 590.001H165.19V631.301H206.49V590.001Z" fill="#A07F57"/>
<path d="M206.49 631.301H165.19V672.601H206.49V631.301Z" fill="#A07F57"/>
<path d="M206.49 672.591H165.19V713.891H206.49V672.591Z" fill="#A07F57"/>
<path d="M206.49 342.221H165.19V383.521H206.49V342.221Z" fill="#A07F57"/>
<path d="M206.49 466.11H165.19V507.41H206.49V466.11Z" fill="#A07F57"/>
</g>
<mask id="mask11_2_14685" style="mask-type:luminance" maskUnits="userSpaceOnUse" x="190" y="233" width="99" height="53">
<path d="M200.45 274.73L214.67 282.94L228.89 285.96L243.11 282.95L257.33 274.73L271.56 266.52L288.53 256.65C287.66 257.02 286.74 257.2 285.81 257.21C284.57 257.21 283.33 256.9 282.21 256.26L271.55 250.1H271.54L257.32 241.89L243.11 233.69L228.89 241.9L214.67 250.11H214.66L200.44 258.32C196.04 260.86 192.49 264.48 190.03 268.73L200.44 274.74H200.45V274.73Z" fill="white"/>
</mask>
<g mask="url(#mask11_2_14685)">
<path d="M289.08 218.33H247.78V259.63H289.08V218.33Z" fill="#C6A76F"/>
<path d="M289.08 259.63H247.78V300.93H289.08V259.63Z" fill="#C6A76F"/>
<path d="M247.78 218.33H206.48V259.63H247.78V218.33Z" fill="#C6A76F"/>
<path d="M247.78 259.63H206.48V300.93H247.78V259.63Z" fill="#C6A76F"/>
<path d="M206.49 218.33H165.19V259.63H206.49V218.33Z" fill="#C6A76F"/>
<path d="M206.49 259.63H165.19V300.93H206.49V259.63Z" fill="#C6A76F"/>
</g>
<mask id="mask12_2_14685" style="mask-type:luminance" maskUnits="userSpaceOnUse" x="228" y="282" width="16" height="7">
<path d="M243.11 282.95L228.89 285.96V288.09C232.3 288.09 235.71 287.21 238.77 285.45L243.11 282.95Z" fill="white"/>
</mask>
<g mask="url(#mask12_2_14685)">
<path d="M247.78 259.63H206.48V300.93H247.78V259.63Z" fill="#77552C"/>
</g>
<mask id="mask13_2_14685" style="mask-type:luminance" maskUnits="userSpaceOnUse" x="228" y="282" width="16" height="7">
<path d="M243.11 282.95L228.89 285.96V288.09C232.3 288.09 235.71 287.21 238.77 285.45L243.11 282.95Z" fill="white"/>
</mask>
<g mask="url(#mask13_2_14685)">
<path d="M247.78 259.63H206.48V300.93H247.78V259.63Z" fill="#C6A76F"/>
</g>
<mask id="mask14_2_14685" style="mask-type:luminance" maskUnits="userSpaceOnUse" x="186" y="268" width="43" height="73">
<path d="M223.52 339.31L228.89 340.42V324V288.1C225.48 288.1 222.07 287.22 219.01 285.45L214.67 282.94L200.45 274.73H200.44L190.03 268.72C187.57 272.97 186.22 277.86 186.22 282.94V299.36V315.78C195.39 327.89 208.65 336.25 223.52 339.31Z" fill="white"/>
</mask>
<g mask="url(#mask14_2_14685)">
<path d="M247.78 259.63H206.48V300.93H247.78V259.63Z" fill="#A07F57"/>
<path d="M247.78 300.93H206.48V342.23H247.78V300.93Z" fill="#A07F57"/>
<path d="M206.49 259.63H165.19V300.93H206.49V259.63Z" fill="#A07F57"/>
<path d="M206.49 300.93H165.19V342.23H206.49V300.93Z" fill="#A07F57"/>
</g>
<mask id="mask15_2_14685" style="mask-type:luminance" maskUnits="userSpaceOnUse" x="186" y="268" width="43" height="73">
<path d="M223.52 339.31L228.89 340.42V324V288.1C225.48 288.1 222.07 287.22 219.01 285.45L214.67 282.94L200.45 274.73H200.44L190.03 268.72C187.57 272.97 186.22 277.86 186.22 282.94V299.36V315.78C195.39 327.89 208.65 336.25 223.52 339.31Z" fill="white"/>
</mask>
<g mask="url(#mask15_2_14685)">
<path d="M247.78 259.63H206.48V300.93H247.78V259.63Z" fill="#C6A76F"/>
<path d="M247.78 300.93H206.48V342.23H247.78V300.93Z" fill="#C6A76F"/>
<path d="M206.49 259.63H165.19V300.93H206.49V259.63Z" fill="#C6A76F"/>
<path d="M206.49 300.93H165.19V342.23H206.49V300.93Z" fill="#C6A76F"/>
</g>
<mask id="mask16_2_14685" style="mask-type:luminance" maskUnits="userSpaceOnUse" x="214" y="282" width="15" height="7">
<path d="M214.67 282.94L219.01 285.45C222.07 287.21 225.48 288.1 228.89 288.1V285.97L214.67 282.95V282.94Z" fill="white"/>
</mask>
<g mask="url(#mask16_2_14685)">
<path d="M247.78 259.631H206.48V300.931H247.78V259.631Z" fill="#A07F57"/>
</g>
<mask id="mask17_2_14685" style="mask-type:luminance" maskUnits="userSpaceOnUse" x="214" y="282" width="15" height="7">
<path d="M214.67 282.94L219.01 285.45C222.07 287.21 225.48 288.1 228.89 288.1V285.97L214.67 282.95V282.94Z" fill="white"/>
</mask>
<g mask="url(#mask17_2_14685)">
<path d="M247.78 259.631H206.48V300.931H247.78V259.631Z" fill="#C6A76F"/>
</g>
<mask id="mask18_2_14685" style="mask-type:luminance" maskUnits="userSpaceOnUse" x="214" y="282" width="15" height="7">
<path d="M214.67 282.94L219.01 285.45C222.07 287.21 225.48 288.1 228.89 288.1V285.97L214.67 282.95V282.94Z" fill="white"/>
</mask>
<g mask="url(#mask18_2_14685)">
<path d="M247.78 259.631H206.48V300.931H247.78V259.631Z" fill="#C6A76F"/>
</g>
<mask id="mask19_2_14685" style="mask-type:luminance" maskUnits="userSpaceOnUse" x="632" y="500" width="3" height="2">
<path d="M632.29 501.65C632.29 501.65 632.29 501.65 632.28 501.65L634.63 500.29L632.29 501.64V501.65Z" fill="white"/>
</mask>
<g mask="url(#mask19_2_14685)">
<path d="M660.74 466.11H619.44V507.41H660.74V466.11Z" fill="#77552C"/>
</g>
<path d="M627.11 521.06V510.64C627.11 508.79 627.6 507.01 628.49 505.46L612.89 496.45V512.86L598.67 521.07L598.66 521.08L584.44 529.29L570.22 537.5L556 545.71L541.78 553.92H541.77L537.03 556.66L527.56 562.13H527.55L513.33 570.34L499.11 578.55L484.89 586.76L470.67 594.97L456.44 603.19L451.7 605.93L442.22 611.4L428 619.61L413.78 627.82H413.77L399.56 636.03L399.55 636.04L385.33 644.24L371.11 652.45L356.89 660.66V693.51L371.11 685.3H371.12L385.33 677.09L399.56 668.88L413.78 660.67L428 652.46L442.22 644.25L456.44 636.04L456.45 636.03L470.67 627.82L484.89 619.61L499.11 611.4L513.33 603.19H513.34L527.55 594.98H527.56L541.78 586.77L556 578.56L570.22 570.35L584.44 562.14H584.45L598.67 553.93L612.89 545.72L627.11 537.51L641.33 529.3H641.34L648.44 525.2C650.64 523.93 652.41 522.13 653.64 520L632.04 507.53L627.11 521.08V521.06Z" fill="#DFE9ED"/>
<mask id="mask20_2_14685" style="mask-type:luminance" maskUnits="userSpaceOnUse" x="356" y="496" width="298" height="198">
<path d="M627.11 521.06V510.64C627.11 508.79 627.6 507.01 628.49 505.46L612.89 496.45V512.86L598.67 521.07L598.66 521.08L584.44 529.29L570.22 537.5L556 545.71L541.78 553.92H541.77L537.03 556.66L527.56 562.13H527.55L513.33 570.34L499.11 578.55L484.89 586.76L470.67 594.97L456.44 603.19L451.7 605.93L442.22 611.4L428 619.61L413.78 627.82H413.77L399.56 636.03L399.55 636.04L385.33 644.24L371.11 652.45L356.89 660.66V693.51L371.11 685.3H371.12L385.33 677.09L399.56 668.88L413.78 660.67L428 652.46L442.22 644.25L456.44 636.04L456.45 636.03L470.67 627.82L484.89 619.61L499.11 611.4L513.33 603.19H513.34L527.55 594.98H527.56L541.78 586.77L556 578.56L570.22 570.35L584.44 562.14H584.45L598.67 553.93L612.89 545.72L627.11 537.51L641.33 529.3H641.34L648.44 525.2C650.64 523.93 652.41 522.13 653.64 520L632.04 507.53L627.11 521.08V521.06Z" fill="white"/>
</mask>
<g mask="url(#mask20_2_14685)">
<path d="M660.74 466.11H619.44V507.41H660.74V466.11Z" fill="#77552C"/>
<path d="M660.74 507.41H619.44V548.71H660.74V507.41Z" fill="#77552C"/>
<path d="M660.74 548.7H619.44V590H660.74V548.7Z" fill="#77552C"/>
<path d="M660.74 590H619.44V631.3H660.74V590Z" fill="#77552C"/>
<path d="M660.74 631.301H619.44V672.601H660.74V631.301Z" fill="#77552C"/>
<path d="M660.74 672.591H619.44V713.891H660.74V672.591Z" fill="#77552C"/>
<path d="M619.45 466.11H578.15V507.41H619.45V466.11Z" fill="#77552C"/>
<path d="M619.45 507.41H578.15V548.71H619.45V507.41Z" fill="#77552C"/>
<path d="M619.45 548.7H578.15V590H619.45V548.7Z" fill="#77552C"/>
<path d="M619.45 590H578.15V631.3H619.45V590Z" fill="#77552C"/>
<path d="M619.45 631.301H578.15V672.601H619.45V631.301Z" fill="#77552C"/>
<path d="M619.45 672.591H578.15V713.891H619.45V672.591Z" fill="#77552C"/>
<path d="M578.15 466.11H536.85V507.41H578.15V466.11Z" fill="#77552C"/>
<path d="M578.15 507.41H536.85V548.71H578.15V507.41Z" fill="#77552C"/>
<path d="M578.15 548.7H536.85V590H578.15V548.7Z" fill="#77552C"/>
<path d="M578.15 590H536.85V631.3H578.15V590Z" fill="#77552C"/>
<path d="M578.15 631.301H536.85V672.601H578.15V631.301Z" fill="#77552C"/>
<path d="M578.15 672.591H536.85V713.891H578.15V672.591Z" fill="#77552C"/>
<path d="M536.86 466.11H495.56V507.41H536.86V466.11Z" fill="#77552C"/>
<path d="M536.86 507.41H495.56V548.71H536.86V507.41Z" fill="#77552C"/>
<path d="M536.86 548.7H495.56V590H536.86V548.7Z" fill="#77552C"/>
<path d="M536.86 590H495.56V631.3H536.86V590Z" fill="#77552C"/>
<path d="M536.86 631.301H495.56V672.601H536.86V631.301Z" fill="#77552C"/>
<path d="M536.86 672.591H495.56V713.891H536.86V672.591Z" fill="#77552C"/>
<path d="M495.56 466.11H454.26V507.41H495.56V466.11Z" fill="#77552C"/>
<path d="M495.56 507.41H454.26V548.71H495.56V507.41Z" fill="#77552C"/>
<path d="M495.56 548.7H454.26V590H495.56V548.7Z" fill="#77552C"/>
<path d="M495.56 590H454.26V631.3H495.56V590Z" fill="#77552C"/>
<path d="M495.56 631.301H454.26V672.601H495.56V631.301Z" fill="#77552C"/>
<path d="M495.56 672.591H454.26V713.891H495.56V672.591Z" fill="#77552C"/>
<path d="M454.26 466.11H412.96V507.41H454.26V466.11Z" fill="#77552C"/>
<path d="M454.26 507.41H412.96V548.71H454.26V507.41Z" fill="#77552C"/>
<path d="M454.26 548.7H412.96V590H454.26V548.7Z" fill="#77552C"/>
<path d="M454.26 590H412.96V631.3H454.26V590Z" fill="#77552C"/>
<path d="M454.26 631.301H412.96V672.601H454.26V631.301Z" fill="#77552C"/>
<path d="M454.26 672.591H412.96V713.891H454.26V672.591Z" fill="#77552C"/>
<path d="M412.97 466.11H371.67V507.41H412.97V466.11Z" fill="#77552C"/>
<path d="M412.97 507.41H371.67V548.71H412.97V507.41Z" fill="#77552C"/>
<path d="M412.97 548.7H371.67V590H412.97V548.7Z" fill="#77552C"/>
<path d="M412.97 590H371.67V631.3H412.97V590Z" fill="#77552C"/>
<path d="M412.97 631.301H371.67V672.601H412.97V631.301Z" fill="#77552C"/>
<path d="M412.97 672.591H371.67V713.891H412.97V672.591Z" fill="#77552C"/>
<path d="M371.67 466.11H330.37V507.41H371.67V466.11Z" fill="#77552C"/>
<path d="M371.67 507.41H330.37V548.71H371.67V507.41Z" fill="#77552C"/>
<path d="M371.67 548.7H330.37V590H371.67V548.7Z" fill="#77552C"/>
<path d="M371.67 590H330.37V631.3H371.67V590Z" fill="#77552C"/>
<path d="M371.67 631.301H330.37V672.601H371.67V631.301Z" fill="#77552C"/>
<path d="M371.67 672.591H330.37V713.891H371.67V672.591Z" fill="#77552C"/>
</g>
<mask id="mask21_2_14685" style="mask-type:luminance" maskUnits="userSpaceOnUse" x="628" y="500" width="7" height="8">
<path d="M634.68 500.27L634.63 500.3L632.28 501.66C630.68 502.59 629.39 503.91 628.5 505.46L632.05 507.51L634.68 500.27Z" fill="white"/>
</mask>
<g mask="url(#mask21_2_14685)">
<path d="M660.74 466.109H619.44V507.409H660.74V466.109Z" fill="#77552C"/>
<path d="M660.74 507.409H619.44V548.709H660.74V507.409Z" fill="#77552C"/>
</g>
<mask id="mask22_2_14685" style="mask-type:luminance" maskUnits="userSpaceOnUse" x="628" y="500" width="7" height="8">
<path d="M634.68 500.27L634.63 500.3L632.28 501.66C630.68 502.59 629.39 503.91 628.5 505.46L632.05 507.51L634.68 500.27Z" fill="white"/>
</mask>
<g mask="url(#mask22_2_14685)">
<path d="M660.74 466.109H619.44V507.409H660.74V466.109Z" fill="#77552C"/>
<path d="M660.74 507.409H619.44V548.709H660.74V507.409Z" fill="#77552C"/>
</g>
<path d="M627.11 521.06L632.04 507.51L628.49 505.46C627.6 507.01 627.11 508.79 627.11 510.64V521.06Z" fill="#DFE9ED"/>
<mask id="mask23_2_14685" style="mask-type:luminance" maskUnits="userSpaceOnUse" x="627" y="505" width="6" height="17">
<path d="M627.11 521.06L632.04 507.51L628.49 505.46C627.6 507.01 627.11 508.79 627.11 510.64V521.06Z" fill="white"/>
</mask>
<g mask="url(#mask23_2_14685)">
<path d="M660.74 466.11H619.44V507.41H660.74V466.11Z" fill="#77552C"/>
<path d="M660.74 507.41H619.44V548.71H660.74V507.41Z" fill="#77552C"/>
</g>
<mask id="mask24_2_14685" style="mask-type:luminance" maskUnits="userSpaceOnUse" x="627" y="505" width="6" height="17">
<path d="M627.11 521.06L632.04 507.51L628.49 505.46C627.6 507.01 627.11 508.79 627.11 510.64V521.06Z" fill="white"/>
</mask>
<g mask="url(#mask24_2_14685)">
<path d="M660.74 466.11H619.44V507.41H660.74V466.11Z" fill="#77552C"/>
<path d="M660.74 507.41H619.44V548.71H660.74V507.41Z" fill="#77552C"/>
</g>
<mask id="mask25_2_14685" style="mask-type:luminance" maskUnits="userSpaceOnUse" x="612" y="278" width="44" height="242">
<path d="M616.73 302.1L612.89 302.85V315.78V348.63V430.74V463.58V496.44L628.49 505.46C629.38 503.91 630.67 502.59 632.27 501.66L627.1 504.64L634.63 500.28L634.67 500.26L632.04 507.5L653.64 519.97C654.87 517.84 655.56 515.39 655.56 512.85V504.64V471.8V455.37V438.95V422.53V389.68H655.55L655.56 389.67V373.26V356.84H655.55L655.56 356.83V307.57V291.15V278.21H655.55C645.93 290.61 632.14 299.1 616.73 302.09V302.1ZM641.33 315.79L641.34 315.78H641.33V315.79Z" fill="white"/>
</mask>
<g mask="url(#mask25_2_14685)">
<path d="M660.74 259.63H619.44V300.93H660.74V259.63Z" fill="#77552C"/>
<path d="M660.74 300.93H619.44V342.23H660.74V300.93Z" fill="#77552C"/>
<path d="M660.74 342.22H619.44V383.52H660.74V342.22Z" fill="#77552C"/>
<path d="M660.74 383.52H619.44V424.82H660.74V383.52Z" fill="#77552C"/>
<path d="M660.74 424.81H619.44V466.11H660.74V424.81Z" fill="#77552C"/>
<path d="M660.74 466.109H619.44V507.409H660.74V466.109Z" fill="#77552C"/>
<path d="M660.74 507.41H619.44V548.71H660.74V507.41Z" fill="#77552C"/>
<path d="M619.45 259.63H578.15V300.93H619.45V259.63Z" fill="#77552C"/>
<path d="M619.45 300.93H578.15V342.23H619.45V300.93Z" fill="#77552C"/>
<path d="M619.45 342.22H578.15V383.52H619.45V342.22Z" fill="#77552C"/>
<path d="M619.45 383.52H578.15V424.82H619.45V383.52Z" fill="#77552C"/>
<path d="M619.45 424.81H578.15V466.11H619.45V424.81Z" fill="#77552C"/>
<path d="M619.45 466.109H578.15V507.409H619.45V466.109Z" fill="#77552C"/>
<path d="M619.45 507.41H578.15V548.71H619.45V507.41Z" fill="#77552C"/>
<path d="M660.74 300.93H619.44V342.23H660.74V300.93Z" fill="#77552C"/>
</g>
<mask id="mask26_2_14685" style="mask-type:luminance" maskUnits="userSpaceOnUse" x="627" y="504" width="1" height="1">
<path d="M627.11 504.65V504.64L627.1 504.65H627.11Z" fill="white"/>
</mask>
<g mask="url(#mask26_2_14685)">
<path d="M660.74 466.109H619.44V507.409H660.74V466.109Z" fill="#77552C"/>
</g>
<mask id="mask27_2_14685" style="mask-type:luminance" maskUnits="userSpaceOnUse" x="627" y="504" width="1" height="1">
<path d="M627.11 504.65V504.64L627.1 504.65H627.11Z" fill="white"/>
</mask>
<g mask="url(#mask27_2_14685)">
<path d="M660.74 466.109H619.44V507.409H660.74V466.109Z" fill="#77552C"/>
</g>
<path d="M641.33 167.99L627.11 176.2L623.32 178.39C620.09 180.25 616.49 181.18 612.89 181.18V200.83V250.09V282.94V299.36V302.85L616.73 302.1C632.14 299.11 645.93 290.62 655.55 278.22H655.56V261.81V241.89H655.55L655.56 241.88V225.47V209.05H655.55L655.56 209.04V176.16C655.56 175.76 655.56 172.48 655.56 168.96C655.56 166.12 654.8 163.39 653.43 161.01L641.35 167.98H641.34L641.33 167.99ZM641.33 282.95L641.34 282.94H641.33V282.95Z" fill="#896F3A"/>
<mask id="mask28_2_14685" style="mask-type:luminance" maskUnits="userSpaceOnUse" x="456" y="82" width="198" height="95">
<path d="M481.08 129.13C483.54 133.38 484.89 138.27 484.89 143.35L499.11 135.14L500.7 134.22L500.89 134.11L513.33 126.93L525.77 134.11L527.55 135.14H527.56L541.77 143.35H541.78L555.99 151.56H556L570.22 159.78L584.44 167.98L598.66 176.2H598.67L612.89 163.88V175.45L627.11 176.21L641.33 168L641.34 167.99L653.42 161.02C652.05 158.64 650.06 156.62 647.6 155.2L641.32 151.57L627.1 143.36H627.09L612.88 135.16L598.66 126.95L598.65 126.94L584.43 118.73L570.21 110.52L555.99 102.31L541.77 94.0999H541.76L527.55 85.8899H527.54C518.74 80.8099 507.9 80.7999 499.09 85.8899L484.88 94.0899L470.66 102.3L470.65 102.31L456.44 110.52L470.66 118.73C475.06 121.27 478.61 124.89 481.07 129.14L481.08 129.13Z" fill="white"/>
</mask>
<g mask="url(#mask28_2_14685)">
<path d="M660.74 53.1504H619.44V94.4504H660.74V53.1504Z" fill="#C6A76F"/>
<path d="M660.74 94.4404H619.44V135.74H660.74V94.4404Z" fill="#C6A76F"/>
<path d="M660.74 135.74H619.44V177.04H660.74V135.74Z" fill="#C6A76F"/>
<path d="M619.45 53.1504H578.15V94.4504H619.45V53.1504Z" fill="#C6A76F"/>
<path d="M619.45 94.4404H578.15V135.74H619.45V94.4404Z" fill="#C6A76F"/>
<path d="M619.45 135.74H578.15V177.04H619.45V135.74Z" fill="#C6A76F"/>
<path d="M578.15 53.1504H536.85V94.4504H578.15V53.1504Z" fill="#C6A76F"/>
<path d="M578.15 94.4404H536.85V135.74H578.15V94.4404Z" fill="#C6A76F"/>
<path d="M578.15 135.74H536.85V177.04H578.15V135.74Z" fill="#C6A76F"/>
<path d="M536.86 53.1504H495.56V94.4504H536.86V53.1504Z" fill="#C6A76F"/>
<path d="M536.86 94.4404H495.56V135.74H536.86V94.4404Z" fill="#C6A76F"/>
<path d="M536.86 135.74H495.56V177.04H536.86V135.74Z" fill="#C6A76F"/>
<path d="M495.56 53.1504H454.26V94.4504H495.56V53.1504Z" fill="#C6A76F"/>
<path d="M495.56 94.4404H454.26V135.74H495.56V94.4404Z" fill="#C6A76F"/>
<path d="M495.56 135.74H454.26V177.04H495.56V135.74Z" fill="#C6A76F"/>
<path d="M619.45 135.74H578.15V177.04H619.45V135.74Z" fill="#C6A76F"/>
<path d="M536.86 53.1504H495.56V94.4504H536.86V53.1504Z" fill="#C6A76F"/>
</g>
<mask id="mask29_2_14685" style="mask-type:luminance" maskUnits="userSpaceOnUse" x="499" y="134" width="2" height="2">
<path d="M500.7 134.22L499.11 135.14L500.7 134.22Z" fill="white"/>
</mask>
<g mask="url(#mask29_2_14685)">
<path d="M536.86 94.4395H495.56V135.739H536.86V94.4395Z" fill="#77552C"/>
</g>
<mask id="mask30_2_14685" style="mask-type:luminance" maskUnits="userSpaceOnUse" x="499" y="134" width="2" height="2">
<path d="M500.7 134.22L499.11 135.14L500.7 134.22Z" fill="white"/>
</mask>
<g mask="url(#mask30_2_14685)">
<path d="M536.86 94.4395H495.56V135.739H536.86V94.4395Z" fill="#C6A76F"/>
</g>
<mask id="mask31_2_14685" style="mask-type:luminance" maskUnits="userSpaceOnUse" x="598" y="163" width="15" height="19">
<path d="M612.89 181.18V163.87L598.67 176.19L602.46 178.38C605.69 180.24 609.29 181.17 612.89 181.17V181.18Z" fill="white"/>
</mask>
<g mask="url(#mask31_2_14685)">
<path d="M619.45 135.74H578.15V177.04H619.45V135.74Z" fill="#A07F57"/>
<path d="M619.45 177.04H578.15V218.34H619.45V177.04Z" fill="#A07F57"/>
</g>
<mask id="mask32_2_14685" style="mask-type:luminance" maskUnits="userSpaceOnUse" x="598" y="163" width="15" height="19">
<path d="M612.89 181.18V163.87L598.67 176.19L602.46 178.38C605.69 180.24 609.29 181.17 612.89 181.17V181.18Z" fill="white"/>
</mask>
<g mask="url(#mask32_2_14685)">
<path d="M619.45 135.74H578.15V177.04H619.45V135.74Z" fill="#C6A76F"/>
<path d="M619.45 177.04H578.15V218.34H619.45V177.04Z" fill="#C6A76F"/>
</g>
<mask id="mask33_2_14685" style="mask-type:luminance" maskUnits="userSpaceOnUse" x="513" y="126" width="13" height="9">
<path d="M525.77 134.11L513.33 126.93V130.78C517.63 130.78 521.92 131.89 525.77 134.11Z" fill="white"/>
</mask>
<g mask="url(#mask33_2_14685)">
<path d="M536.86 94.4395H495.56V135.739H536.86V94.4395Z" fill="#A07F57"/>
</g>
<mask id="mask34_2_14685" style="mask-type:luminance" maskUnits="userSpaceOnUse" x="513" y="126" width="13" height="9">
<path d="M525.77 134.11L513.33 126.93V130.78C517.63 130.78 521.92 131.89 525.77 134.11Z" fill="white"/>
</mask>
<g mask="url(#mask34_2_14685)">
<path d="M536.86 94.4395H495.56V135.739H536.86V94.4395Z" fill="#C6A76F"/>
</g>
<mask id="mask35_2_14685" style="mask-type:luminance" maskUnits="userSpaceOnUse" x="525" y="134" width="3" height="2">
<path d="M525.77 134.11L527.55 135.14L525.77 134.11Z" fill="white"/>
</mask>
<g mask="url(#mask35_2_14685)">
<path d="M536.86 94.4404H495.56V135.74H536.86V94.4404Z" fill="#A07F57"/>
</g>
<mask id="mask36_2_14685" style="mask-type:luminance" maskUnits="userSpaceOnUse" x="525" y="134" width="3" height="2">
<path d="M525.77 134.11L527.55 135.14L525.77 134.11Z" fill="white"/>
</mask>
<g mask="url(#mask36_2_14685)">
<path d="M536.86 94.4404H495.56V135.74H536.86V94.4404Z" fill="#C6A76F"/>
</g>
<mask id="mask37_2_14685" style="mask-type:luminance" maskUnits="userSpaceOnUse" x="525" y="134" width="3" height="2">
<path d="M525.77 134.11L527.55 135.14L525.77 134.11Z" fill="white"/>
</mask>
<g mask="url(#mask37_2_14685)">
<path d="M536.86 94.4404H495.56V135.74H536.86V94.4404Z" fill="#A07F57"/>
</g>
<mask id="mask38_2_14685" style="mask-type:luminance" maskUnits="userSpaceOnUse" x="525" y="134" width="3" height="2">
<path d="M525.77 134.11L527.55 135.14L525.77 134.11Z" fill="white"/>
</mask>
<g mask="url(#mask38_2_14685)">
<path d="M536.86 94.4404H495.56V135.74H536.86V94.4404Z" fill="#C6A76F"/>
</g>
<mask id="mask39_2_14685" style="mask-type:luminance" maskUnits="userSpaceOnUse" x="500" y="126" width="14" height="9">
<path d="M513.33 126.93L500.89 134.11C504.74 131.89 509.04 130.78 513.33 130.78V126.93Z" fill="white"/>
</mask>
<g mask="url(#mask39_2_14685)">
<path d="M536.86 94.4395H495.56V135.739H536.86V94.4395Z" fill="#77552C"/>
</g>
<mask id="mask40_2_14685" style="mask-type:luminance" maskUnits="userSpaceOnUse" x="500" y="126" width="14" height="9">
<path d="M513.33 126.93L500.89 134.11C504.74 131.89 509.04 130.78 513.33 130.78V126.93Z" fill="white"/>
</mask>
<g mask="url(#mask40_2_14685)">
<path d="M536.86 94.4395H495.56V135.739H536.86V94.4395Z" fill="#C6A76F"/>
</g>
<path d="M623.32 178.39L627.11 176.2L612.89 175.44V181.18C616.49 181.18 620.09 180.25 623.32 178.39Z" fill="#896F3A"/>
<mask id="mask41_2_14685" style="mask-type:luminance" maskUnits="userSpaceOnUse" x="612" y="175" width="16" height="7">
<path d="M623.32 178.39L627.11 176.2L612.89 175.44V181.18C616.49 181.18 620.09 180.25 623.32 178.39Z" fill="white"/>
</mask>
<g mask="url(#mask41_2_14685)">
<path d="M660.74 135.74H619.44V177.04H660.74V135.74Z" fill="#C6A76F"/>
<path d="M660.74 177.04H619.44V218.34H660.74V177.04Z" fill="#C6A76F"/>
<path d="M619.45 135.74H578.15V177.04H619.45V135.74Z" fill="#C6A76F"/>
<path d="M619.45 177.04H578.15V218.34H619.45V177.04Z" fill="#C6A76F"/>
</g>
<path d="M433.81 172.84L434.4 172.5L442.22 167.98L456.44 159.77L456.45 159.76L470.67 151.55L484.89 143.34C484.89 138.26 483.53 133.37 481.08 129.12L477.89 130.96L470.67 135.13L456.44 143.34L442.23 151.55H442.22L437.83 154.09C434.79 155.85 431.4 156.72 428 156.72V174.39C430.01 174.39 432.01 173.87 433.81 172.83V172.84Z" fill="#E2B042"/>
<path d="M386.38 150.95C387.06 152.13 388.04 153.13 389.26 153.83L399.56 159.78L413.77 167.99H413.78L422.19 172.84C423.99 173.88 426 174.4 428 174.4V156.73C424.61 156.73 421.21 155.85 418.17 154.1L417.52 153.72L413.78 151.56L399.56 143.35L385.33 135.14V147.02C385.33 148.43 385.7 149.78 386.38 150.95Z" fill="#EFD35E"/>
<path d="M257.33 241.89L271.55 250.1H271.56L282.22 256.26C283.33 256.9 284.57 257.22 285.82 257.21C286 252.53 287.31 248.04 289.59 244.1L285.79 241.91H285.77L271.56 233.69L257.33 225.48L246.92 219.46C244.46 223.71 243.11 228.6 243.11 233.68C243.11 233.68 243.11 233.69 243.11 233.7L257.32 241.9L257.33 241.89Z" fill="#EFD35E"/>
<path d="M257.33 225.47L271.56 233.68L285.79 241.9L289.59 244.09C292.04 239.83 295.6 236.21 300 233.67L314.22 225.47L328.44 217.25L340.43 210.33C338.99 207.83 336.89 205.7 334.31 204.21L333.55 203.77L329.01 201.15L328.85 201.23L315.8 208.12L314.22 209.03L300 217.24L289.78 223.14C287.3 224.57 284.26 224.57 281.78 223.14L273.39 218.3C272.57 217.83 272.57 216.65 273.39 216.18L285.78 209.03L300 200.82L302.53 199.35L301.97 198.98L314.23 192.61L306.58 188.19C302.51 185.84 297.5 185.84 293.43 188.19L285.78 192.6L285.77 192.61L271.56 200.81V200.83H271.55L257.33 209.03C252.93 211.57 249.38 215.19 246.92 219.44L257.33 225.45V225.47Z" fill="#F4F0A8"/>
<path d="M417.52 123.15V133.25L428.44 126.94L440.55 119.95C441.85 119.2 443.46 119.2 444.76 119.95L453.8 125.17C455.17 125.96 455.17 127.94 453.8 128.73L442.66 135.16L428.44 143.37L417.52 137.06V153.72L418.17 154.1C421.21 155.86 424.6 156.73 428 156.73C431.4 156.73 434.79 155.85 437.83 154.1L442.22 151.56H442.23L456.44 143.35L470.67 135.14L477.89 130.97L481.08 129.13C478.62 124.88 475.07 121.26 470.67 118.72L456.45 110.51H456.44V110.5C447.64 105.42 436.8 105.42 428 110.5L413.78 118.71L413.77 118.72L412.53 118.01C416.27 120.47 417.52 123.15 417.52 123.15Z" fill="#F4F0A8"/>
<mask id="mask42_2_14685" style="mask-type:luminance" maskUnits="userSpaceOnUse" x="301" y="113" width="117" height="96">
<path d="M302.53 199.36L303.17 198.99L317.4 207.2L315.79 208.13L328.84 201.24L328.44 200.83H328.43V184.41V184.36C328.43 174.31 333.75 165.03 342.39 159.93C342.47 159.88 342.55 159.82 342.64 159.78H342.65H342.66L356.88 151.57L371.1 143.36L385.32 135.15L399.29 127.6C399.29 127.6 404.03 128.19 403.44 145.53L413.83 151.58L417.51 152.41V123.15C417.51 123.15 416.26 120.47 412.52 118.01L410.44 116.81C409.08 116.02 407.65 115.4 406.19 114.93C404.52 114.4 402.81 114.06 401.08 113.94C400.57 113.9 400.06 113.88 399.55 113.88C395.79 113.88 392.03 114.85 388.65 116.8L385.33 118.72H385.32L371.1 126.93L356.88 135.14L342.66 143.35L328.44 151.56H328.43V151.57C328.14 151.73 327.87 151.92 327.59 152.09C327.33 152.25 327.06 152.41 326.81 152.58C326.53 152.77 326.26 152.97 325.99 153.17C325.76 153.34 325.52 153.5 325.29 153.68C325.03 153.88 324.78 154.1 324.52 154.31C324.3 154.5 324.06 154.67 323.85 154.87C323.62 155.07 323.4 155.29 323.18 155.5C322.95 155.71 322.72 155.92 322.5 156.14C322.27 156.37 322.06 156.61 321.84 156.85C321.64 157.06 321.43 157.27 321.24 157.49C321.02 157.75 320.81 158.01 320.6 158.28C320.43 158.49 320.24 158.7 320.08 158.92C319.89 159.17 319.71 159.44 319.53 159.7C319.36 159.94 319.18 160.18 319.01 160.42C318.84 160.67 318.7 160.93 318.54 161.18C318.37 161.45 318.2 161.71 318.04 161.98C317.88 162.25 317.75 162.53 317.6 162.8C317.46 163.07 317.31 163.33 317.17 163.6C317.02 163.9 316.89 164.2 316.76 164.51C316.64 164.77 316.52 165.02 316.41 165.28C316.28 165.6 316.16 165.93 316.04 166.25C315.95 166.5 315.84 166.75 315.75 167.01C315.63 167.35 315.53 167.71 315.43 168.06C315.36 168.3 315.28 168.54 315.21 168.78C315.12 169.12 315.05 169.47 314.97 169.81C314.91 170.07 314.84 170.33 314.79 170.59C314.73 170.91 314.68 171.24 314.63 171.57C314.58 171.86 314.52 172.15 314.49 172.44C314.44 172.83 314.41 173.22 314.37 173.61C314.35 173.84 314.32 174.07 314.3 174.31C314.26 174.94 314.24 175.57 314.24 176.2V192.63L301.98 199L302.54 199.37L302.53 199.36Z" fill="white"/>
</mask>
<g mask="url(#mask42_2_14685)">
<path d="M454.26 94.4395H412.96V135.739H454.26V94.4395Z" fill="#A07F57"/>
<path d="M454.26 135.739H412.96V177.039H454.26V135.739Z" fill="#A07F57"/>
<path d="M454.26 177.039H412.96V218.339H454.26V177.039Z" fill="#A07F57"/>
<path d="M412.97 94.4395H371.67V135.739H412.97V94.4395Z" fill="#A07F57"/>
<path d="M412.97 135.739H371.67V177.039H412.97V135.739Z" fill="#A07F57"/>
<path d="M412.97 177.039H371.67V218.339H412.97V177.039Z" fill="#A07F57"/>
<path d="M371.67 94.4395H330.37V135.739H371.67V94.4395Z" fill="#A07F57"/>
<path d="M371.67 135.739H330.37V177.039H371.67V135.739Z" fill="#A07F57"/>
<path d="M371.67 177.039H330.37V218.339H371.67V177.039Z" fill="#A07F57"/>
<path d="M330.37 94.4395H289.07V135.739H330.37V94.4395Z" fill="#A07F57"/>
<path d="M330.37 135.739H289.07V177.039H330.37V135.739Z" fill="#A07F57"/>
<path d="M330.37 177.039H289.07V218.339H330.37V177.039Z" fill="#A07F57"/>
</g>
<mask id="mask43_2_14685" style="mask-type:luminance" maskUnits="userSpaceOnUse" x="328" y="200" width="2" height="2">
<path d="M328.85 201.24L329.01 201.15L328.45 200.83L328.85 201.24Z" fill="white"/>
</mask>
<g mask="url(#mask43_2_14685)">
<path d="M330.37 177.04H289.07V218.34H330.37V177.04Z" fill="#C6A76F"/>
</g>
<mask id="mask44_2_14685" style="mask-type:luminance" maskUnits="userSpaceOnUse" x="328" y="200" width="2" height="2">
<path d="M328.85 201.24L329.01 201.15L328.45 200.83L328.85 201.24Z" fill="white"/>
</mask>
<g mask="url(#mask44_2_14685)">
<path d="M330.37 177.04H289.07V218.34H330.37V177.04Z" fill="#A07F57"/>
</g>
<path d="M417.52 153.72V152.41L413.84 151.57L417.52 153.72Z" fill="#EFD35E"/>
<mask id="mask45_2_14685" style="mask-type:luminance" maskUnits="userSpaceOnUse" x="413" y="151" width="5" height="3">
<path d="M417.52 153.72V152.41L413.84 151.57L417.52 153.72Z" fill="white"/>
</mask>
<g mask="url(#mask45_2_14685)">
<path d="M454.26 135.74H412.96V177.04H454.26V135.74Z" fill="#A07F57"/>
</g>
<path d="M413.78 151.56L417.52 153.72L413.84 151.57L403.45 145.52C404.04 128.19 399.3 127.59 399.3 127.59L385.33 135.14L399.56 143.35L413.78 151.56Z" fill="#F4F0A8"/>
<path d="M297.52 251.53L297.57 251.5L300 250.1L314.22 241.89L328.44 233.68L342.67 225.47V218.7C342.67 215.71 341.87 212.84 340.43 210.33L328.44 217.25L314.22 225.46L300 233.67C295.6 236.22 292.04 239.84 289.59 244.09C287.32 248.03 286 252.52 285.82 257.2C286.75 257.2 287.67 257.01 288.54 256.64C288.81 256.53 289.07 256.4 289.33 256.25L297.53 251.52L297.52 251.53Z" fill="#E2B042"/>
<path d="M302.53 199.36L300 200.83L285.78 209.04L273.39 216.19C272.57 216.66 272.57 217.84 273.39 218.31L281.78 223.15C284.26 224.58 287.3 224.58 289.78 223.15L300 217.25L314.22 209.04L315.8 208.13L302.53 199.37V199.36Z" fill="#F4F0A8"/>
<mask id="mask46_2_14685" style="mask-type:luminance" maskUnits="userSpaceOnUse" x="272" y="199" width="44" height="26">
<path d="M302.53 199.36L300 200.83L285.78 209.04L273.39 216.19C272.57 216.66 272.57 217.84 273.39 218.31L281.78 223.15C284.26 224.58 287.3 224.58 289.78 223.15L300 217.25L314.22 209.04L315.8 208.13L302.53 199.37V199.36Z" fill="white"/>
</mask>
<g mask="url(#mask46_2_14685)">
<path d="M330.37 177.04H289.07V218.34H330.37V177.04Z" fill="#77552C"/>
<path d="M330.37 218.33H289.07V259.63H330.37V218.33Z" fill="#77552C"/>
<path d="M289.08 177.04H247.78V218.34H289.08V177.04Z" fill="#77552C"/>
<path d="M289.08 218.33H247.78V259.63H289.08V218.33Z" fill="#77552C"/>
</g>
<mask id="mask47_2_14685" style="mask-type:luminance" maskUnits="userSpaceOnUse" x="302" y="198" width="16" height="11">
<path d="M303.17 198.99L302.53 199.36L315.79 208.13L317.4 207.2L303.17 198.99Z" fill="white"/>
</mask>
<g mask="url(#mask47_2_14685)">
<path d="M330.37 177.04H289.07V218.34H330.37V177.04Z" fill="#A07F57"/>
</g>
<mask id="mask48_2_14685" style="mask-type:luminance" maskUnits="userSpaceOnUse" x="302" y="198" width="16" height="11">
<path d="M303.17 198.99L302.53 199.36L315.79 208.13L317.4 207.2L303.17 198.99Z" fill="white"/>
</mask>
<g mask="url(#mask48_2_14685)">
<path d="M330.37 177.04H289.07V218.34H330.37V177.04Z" fill="#77552C"/>
</g>
<path d="M442.66 135.15L453.8 128.72C455.17 127.93 455.17 125.95 453.8 125.16L444.76 119.94C443.46 119.19 441.85 119.19 440.55 119.94L428.44 126.93L417.52 133.24V137.05L428.44 143.36L442.66 135.15Z" fill="#F4F0A8"/>
<mask id="mask49_2_14685" style="mask-type:luminance" maskUnits="userSpaceOnUse" x="417" y="119" width="38" height="25">
<path d="M442.66 135.15L453.8 128.72C455.17 127.93 455.17 125.95 453.8 125.16L444.76 119.94C443.46 119.19 441.85 119.19 440.55 119.94L428.44 126.93L417.52 133.24V137.05L428.44 143.36L442.66 135.15Z" fill="white"/>
</mask>
<g mask="url(#mask49_2_14685)">
<path d="M495.56 94.4404H454.26V135.74H495.56V94.4404Z" fill="#77552C"/>
<path d="M495.56 135.74H454.26V177.04H495.56V135.74Z" fill="#77552C"/>
<path d="M454.26 94.4404H412.96V135.74H454.26V94.4404Z" fill="#77552C"/>
<path d="M454.26 135.74H412.96V177.04H454.26V135.74Z" fill="#77552C"/>
</g>
<mask id="mask50_2_14685" style="mask-type:luminance" maskUnits="userSpaceOnUse" x="541" y="143" width="15" height="336">
<path d="M541.78 176.2V192.61V192.62V209.04V225.46V225.47V241.89V258.31V274.73V291.16V307.57V324V340.42V356.84V356.85V373.26V373.27V389.69V406.11V406.12V422.53V438.96V455.37V455.38V471.8L553.65 478.65L556 477.68V463.59V447.17V447.16V430.75V430.74V414.33V414.32V397.9V381.48V365.06V365.05V348.63V332.21V315.79V315.78V299.37V299.36V282.95V282.94V266.52V266.51V250.1V233.68V217.25V200.83V184.41V184.4V167.99V167.98V151.57V151.56H555.99L541.78 143.36V159.77V176.2Z" fill="white"/>
</mask>
<g mask="url(#mask50_2_14685)">
<path d="M578.15 135.74H536.85V177.04H578.15V135.74Z" fill="#77552C"/>
<path d="M578.15 177.04H536.85V218.34H578.15V177.04Z" fill="#77552C"/>
<path d="M578.15 218.33H536.85V259.63H578.15V218.33Z" fill="#77552C"/>
<path d="M578.15 259.63H536.85V300.93H578.15V259.63Z" fill="#77552C"/>
<path d="M578.15 300.931H536.85V342.231H578.15V300.931Z" fill="#77552C"/>
<path d="M578.15 342.221H536.85V383.521H578.15V342.221Z" fill="#77552C"/>
<path d="M578.15 383.521H536.85V424.821H578.15V383.521Z" fill="#77552C"/>
<path d="M578.15 424.811H536.85V466.111H578.15V424.811Z" fill="#77552C"/>
<path d="M578.15 466.11H536.85V507.41H578.15V466.11Z" fill="#77552C"/>
</g>
<path d="M553.65 478.65L556 480.01V477.68L553.65 478.65Z" fill="#DFE9ED"/>
<mask id="mask51_2_14685" style="mask-type:luminance" maskUnits="userSpaceOnUse" x="553" y="477" width="3" height="4">
<path d="M553.65 478.65L556 480.01V477.68L553.65 478.65Z" fill="white"/>
</mask>
<g mask="url(#mask51_2_14685)">
<path d="M578.15 466.109H536.85V507.409H578.15V466.109Z" fill="#77552C"/>
</g>
<mask id="mask52_2_14685" style="mask-type:luminance" maskUnits="userSpaceOnUse" x="556" y="151" width="15" height="327">
<path d="M556 167.99V184.4V266.51V282.94V299.36V315.78V365.05V414.32V430.74V447.16V477.68L568.59 472.48C569.11 472.26 569.67 472.18 570.22 472.22V324V241.89V225.47V159.78L556 151.57V167.98V167.99Z" fill="white"/>
</mask>
<g mask="url(#mask52_2_14685)">
<path d="M578.15 135.74H536.85V177.04H578.15V135.74Z" fill="#A07F57"/>
<path d="M578.15 177.04H536.85V218.34H578.15V177.04Z" fill="#A07F57"/>
<path d="M578.15 218.33H536.85V259.63H578.15V218.33Z" fill="#A07F57"/>
<path d="M578.15 259.63H536.85V300.93H578.15V259.63Z" fill="#A07F57"/>
<path d="M578.15 300.931H536.85V342.231H578.15V300.931Z" fill="#A07F57"/>
<path d="M578.15 342.221H536.85V383.521H578.15V342.221Z" fill="#A07F57"/>
<path d="M578.15 383.521H536.85V424.821H578.15V383.521Z" fill="#A07F57"/>
<path d="M578.15 424.811H536.85V466.111H578.15V424.811Z" fill="#A07F57"/>
<path d="M578.15 466.11H536.85V507.41H578.15V466.11Z" fill="#A07F57"/>
</g>
<path d="M568.59 472.48L556 477.68V480.01L570.22 488.22V472.22C569.67 472.18 569.11 472.26 568.59 472.48Z" fill="#DFE9ED"/>
<mask id="mask53_2_14685" style="mask-type:luminance" maskUnits="userSpaceOnUse" x="556" y="472" width="15" height="17">
<path d="M568.59 472.48L556 477.68V480.01L570.22 488.22V472.22C569.67 472.18 569.11 472.26 568.59 472.48Z" fill="white"/>
</mask>
<g mask="url(#mask53_2_14685)">
<path d="M578.15 466.109H536.85V507.409H578.15V466.109Z" fill="#A07F57"/>
</g>
<mask id="mask54_2_14685" style="mask-type:luminance" maskUnits="userSpaceOnUse" x="570" y="159" width="15" height="322">
<path d="M570.22 192.62V225.46V241.88V274.72H570.23L570.22 274.74V323.99V472.22C570.75 472.26 571.28 472.41 571.75 472.69L584.44 480.02V447.18V430.76V414.34V365.07V332.22V299.38V282.95V266.54V250.11V233.69V217.27V184.42V168L570.22 159.79V192.63V192.62Z" fill="white"/>
</mask>
<g mask="url(#mask54_2_14685)">
<path d="M619.45 135.74H578.15V177.04H619.45V135.74Z" fill="#77552C"/>
<path d="M619.45 177.04H578.15V218.34H619.45V177.04Z" fill="#77552C"/>
<path d="M619.45 218.33H578.15V259.63H619.45V218.33Z" fill="#77552C"/>
<path d="M619.45 259.63H578.15V300.93H619.45V259.63Z" fill="#77552C"/>
<path d="M619.45 300.931H578.15V342.231H619.45V300.931Z" fill="#77552C"/>
<path d="M619.45 342.221H578.15V383.521H619.45V342.221Z" fill="#77552C"/>
<path d="M619.45 383.521H578.15V424.821H619.45V383.521Z" fill="#77552C"/>
<path d="M619.45 424.811H578.15V466.111H619.45V424.811Z" fill="#77552C"/>
<path d="M619.45 466.11H578.15V507.41H619.45V466.11Z" fill="#77552C"/>
<path d="M578.15 135.74H536.85V177.04H578.15V135.74Z" fill="#77552C"/>
<path d="M578.15 177.04H536.85V218.34H578.15V177.04Z" fill="#77552C"/>
<path d="M578.15 218.33H536.85V259.63H578.15V218.33Z" fill="#77552C"/>
<path d="M578.15 259.63H536.85V300.93H578.15V259.63Z" fill="#77552C"/>
<path d="M578.15 300.931H536.85V342.231H578.15V300.931Z" fill="#77552C"/>
<path d="M578.15 342.221H536.85V383.521H578.15V342.221Z" fill="#77552C"/>
<path d="M578.15 383.521H536.85V424.821H578.15V383.521Z" fill="#77552C"/>
<path d="M578.15 424.811H536.85V466.111H578.15V424.811Z" fill="#77552C"/>
<path d="M578.15 466.11H536.85V507.41H578.15V466.11Z" fill="#77552C"/>
</g>
<path d="M571.75 472.68C571.28 472.41 570.75 472.25 570.22 472.21V488.21L584.44 496.42V480.01L571.75 472.68Z" fill="#DFE9ED"/>
<mask id="mask55_2_14685" style="mask-type:luminance" maskUnits="userSpaceOnUse" x="570" y="472" width="15" height="25">
<path d="M571.75 472.68C571.28 472.41 570.75 472.25 570.22 472.21V488.21L584.44 496.42V480.01L571.75 472.68Z" fill="white"/>
</mask>
<g mask="url(#mask55_2_14685)">
<path d="M619.45 466.11H578.15V507.41H619.45V466.11Z" fill="#77552C"/>
<path d="M578.15 466.11H536.85V507.41H578.15V466.11Z" fill="#77552C"/>
</g>
<mask id="mask56_2_14685" style="mask-type:luminance" maskUnits="userSpaceOnUse" x="269" y="455" width="285" height="142">
<path d="M541.78 471.8L537.04 469.06L527.56 463.59L527.55 463.58L520.45 459.48L513.34 455.38H513.33L499.11 463.59L489.63 469.06L484.89 471.8L470.67 480.01L456.45 488.22H456.44V488.23L442.22 496.43V496.44L437.48 499.17L428 504.64V504.65L413.78 512.86L404.3 518.33L399.56 521.07L385.34 529.28H385.33L371.12 537.49H371.11L356.89 545.7L342.67 553.91L337.93 556.65L328.45 562.12L328.44 562.13L314.22 570.34L304.74 575.81L300 578.55L285.78 586.76L271.56 594.97L269.63 596.08L553.65 478.65L541.78 471.8Z" fill="white"/>
</mask>
<g mask="url(#mask56_2_14685)">
<path d="M578.15 424.81H536.85V466.11H578.15V424.81Z" fill="#C6A76F"/>
<path d="M578.15 466.109H536.85V507.409H578.15V466.109Z" fill="#C6A76F"/>
<path d="M578.15 507.409H536.85V548.709H578.15V507.409Z" fill="#C6A76F"/>
<path d="M578.15 548.699H536.85V589.999H578.15V548.699Z" fill="#C6A76F"/>
<path d="M578.15 590H536.85V631.3H578.15V590Z" fill="#C6A76F"/>
<path d="M536.86 424.81H495.56V466.11H536.86V424.81Z" fill="#C6A76F"/>
<path d="M536.86 466.109H495.56V507.409H536.86V466.109Z" fill="#C6A76F"/>
<path d="M536.86 507.409H495.56V548.709H536.86V507.409Z" fill="#C6A76F"/>
<path d="M536.86 548.699H495.56V589.999H536.86V548.699Z" fill="#C6A76F"/>
<path d="M536.86 590H495.56V631.3H536.86V590Z" fill="#C6A76F"/>
<path d="M495.56 424.81H454.26V466.11H495.56V424.81Z" fill="#C6A76F"/>
<path d="M495.56 466.109H454.26V507.409H495.56V466.109Z" fill="#C6A76F"/>
<path d="M495.56 507.409H454.26V548.709H495.56V507.409Z" fill="#C6A76F"/>
<path d="M495.56 548.699H454.26V589.999H495.56V548.699Z" fill="#C6A76F"/>
<path d="M495.56 590H454.26V631.3H495.56V590Z" fill="#C6A76F"/>
<path d="M454.26 424.81H412.96V466.11H454.26V424.81Z" fill="#C6A76F"/>
<path d="M454.26 466.109H412.96V507.409H454.26V466.109Z" fill="#C6A76F"/>
<path d="M454.26 507.409H412.96V548.709H454.26V507.409Z" fill="#C6A76F"/>
<path d="M454.26 548.699H412.96V589.999H454.26V548.699Z" fill="#C6A76F"/>
<path d="M454.26 590H412.96V631.3H454.26V590Z" fill="#C6A76F"/>
<path d="M412.97 424.81H371.67V466.11H412.97V424.81Z" fill="#C6A76F"/>
<path d="M412.97 466.109H371.67V507.409H412.97V466.109Z" fill="#C6A76F"/>
<path d="M412.97 507.409H371.67V548.709H412.97V507.409Z" fill="#C6A76F"/>
<path d="M412.97 548.699H371.67V589.999H412.97V548.699Z" fill="#C6A76F"/>
<path d="M412.97 590H371.67V631.3H412.97V590Z" fill="#C6A76F"/>
<path d="M371.67 424.81H330.37V466.11H371.67V424.81Z" fill="#C6A76F"/>
<path d="M371.67 466.109H330.37V507.409H371.67V466.109Z" fill="#C6A76F"/>
<path d="M371.67 507.409H330.37V548.709H371.67V507.409Z" fill="#C6A76F"/>
<path d="M371.67 548.699H330.37V589.999H371.67V548.699Z" fill="#C6A76F"/>
<path d="M371.67 590H330.37V631.3H371.67V590Z" fill="#C6A76F"/>
<path d="M330.37 424.81H289.07V466.11H330.37V424.81Z" fill="#C6A76F"/>
<path d="M330.37 466.109H289.07V507.409H330.37V466.109Z" fill="#C6A76F"/>
<path d="M330.37 507.409H289.07V548.709H330.37V507.409Z" fill="#C6A76F"/>
<path d="M330.37 548.699H289.07V589.999H330.37V548.699Z" fill="#C6A76F"/>
<path d="M330.37 590H289.07V631.3H330.37V590Z" fill="#C6A76F"/>
<path d="M289.08 424.81H247.78V466.11H289.08V424.81Z" fill="#C6A76F"/>
<path d="M289.08 466.109H247.78V507.409H289.08V466.109Z" fill="#C6A76F"/>
<path d="M289.08 507.409H247.78V548.709H289.08V507.409Z" fill="#C6A76F"/>
<path d="M289.08 548.699H247.78V589.999H289.08V548.699Z" fill="#C6A76F"/>
<path d="M289.08 590H247.78V631.3H289.08V590Z" fill="#C6A76F"/>
</g>
<path d="M371.11 652.45L385.33 644.23L399.55 636.03H399.56L413.77 627.81H413.78L428 619.6L442.22 611.39L451.7 605.92L456.44 603.18L470.67 594.97L484.89 586.75L499.11 578.55L513.33 570.33L527.55 562.12H527.56L537.03 556.65L541.77 553.91H541.78L556 545.7L570.22 537.49L584.44 529.28L598.66 521.07H598.67L612.89 512.85L603.41 507.38L598.67 504.65L589.19 499.17L584.45 496.43H584.44L570.22 488.22L556 480.01L553.65 478.65L269.63 596.08L257.33 603.18L252.59 605.92L243.12 611.39H243.11L228.89 619.6L243.11 627.81L257.33 636.02L271.56 644.24L285.77 652.44H285.78L300 660.66L304.74 663.4L314.22 668.87H314.23C323.02 673.95 333.86 673.95 342.65 668.87H342.67V668.85L356.88 660.65H356.89L371.11 652.44V652.45Z" fill="#DFE9ED"/>
<mask id="mask57_2_14685" style="mask-type:luminance" maskUnits="userSpaceOnUse" x="228" y="478" width="385" height="195">
<path d="M371.11 652.45L385.33 644.23L399.55 636.03H399.56L413.77 627.81H413.78L428 619.6L442.22 611.39L451.7 605.92L456.44 603.18L470.67 594.97L484.89 586.75L499.11 578.55L513.33 570.33L527.55 562.12H527.56L537.03 556.65L541.77 553.91H541.78L556 545.7L570.22 537.49L584.44 529.28L598.66 521.07H598.67L612.89 512.85L603.41 507.38L598.67 504.65L589.19 499.17L584.45 496.43H584.44L570.22 488.22L556 480.01L553.65 478.65L269.63 596.08L257.33 603.18L252.59 605.92L243.12 611.39H243.11L228.89 619.6L243.11 627.81L257.33 636.02L271.56 644.24L285.77 652.44H285.78L300 660.66L304.74 663.4L314.22 668.87H314.23C323.02 673.95 333.86 673.95 342.65 668.87H342.67V668.85L356.88 660.65H356.89L371.11 652.44V652.45Z" fill="white"/>
</mask>
<g mask="url(#mask57_2_14685)">
<path d="M619.45 466.11H578.15V507.41H619.45V466.11Z" fill="#C6A76F"/>
<path d="M619.45 507.41H578.15V548.71H619.45V507.41Z" fill="#C6A76F"/>
<path d="M619.45 548.7H578.15V590H619.45V548.7Z" fill="#C6A76F"/>
<path d="M619.45 590H578.15V631.3H619.45V590Z" fill="#C6A76F"/>
<path d="M619.45 631.301H578.15V672.601H619.45V631.301Z" fill="#C6A76F"/>
<path d="M619.45 672.591H578.15V713.891H619.45V672.591Z" fill="#C6A76F"/>
<path d="M578.15 466.11H536.85V507.41H578.15V466.11Z" fill="#C6A76F"/>
<path d="M578.15 507.41H536.85V548.71H578.15V507.41Z" fill="#C6A76F"/>
<path d="M578.15 548.7H536.85V590H578.15V548.7Z" fill="#C6A76F"/>
<path d="M578.15 590H536.85V631.3H578.15V590Z" fill="#C6A76F"/>
<path d="M578.15 631.301H536.85V672.601H578.15V631.301Z" fill="#C6A76F"/>
<path d="M578.15 672.591H536.85V713.891H578.15V672.591Z" fill="#C6A76F"/>
<path d="M536.86 466.11H495.56V507.41H536.86V466.11Z" fill="#C6A76F"/>
<path d="M536.86 507.41H495.56V548.71H536.86V507.41Z" fill="#C6A76F"/>
<path d="M536.86 548.7H495.56V590H536.86V548.7Z" fill="#C6A76F"/>
<path d="M536.86 590H495.56V631.3H536.86V590Z" fill="#C6A76F"/>
<path d="M536.86 631.301H495.56V672.601H536.86V631.301Z" fill="#C6A76F"/>
<path d="M536.86 672.591H495.56V713.891H536.86V672.591Z" fill="#C6A76F"/>
<path d="M495.56 466.11H454.26V507.41H495.56V466.11Z" fill="#C6A76F"/>
<path d="M495.56 507.41H454.26V548.71H495.56V507.41Z" fill="#C6A76F"/>
<path d="M495.56 548.7H454.26V590H495.56V548.7Z" fill="#C6A76F"/>
<path d="M495.56 590H454.26V631.3H495.56V590Z" fill="#C6A76F"/>
<path d="M495.56 631.301H454.26V672.601H495.56V631.301Z" fill="#C6A76F"/>
<path d="M495.56 672.591H454.26V713.891H495.56V672.591Z" fill="#C6A76F"/>
<path d="M454.26 466.11H412.96V507.41H454.26V466.11Z" fill="#C6A76F"/>
<path d="M454.26 507.41H412.96V548.71H454.26V507.41Z" fill="#C6A76F"/>
<path d="M454.26 548.7H412.96V590H454.26V548.7Z" fill="#C6A76F"/>
<path d="M454.26 590H412.96V631.3H454.26V590Z" fill="#C6A76F"/>
<path d="M454.26 631.301H412.96V672.601H454.26V631.301Z" fill="#C6A76F"/>
<path d="M454.26 672.591H412.96V713.891H454.26V672.591Z" fill="#C6A76F"/>
<path d="M412.97 466.11H371.67V507.41H412.97V466.11Z" fill="#C6A76F"/>
<path d="M412.97 507.41H371.67V548.71H412.97V507.41Z" fill="#C6A76F"/>
<path d="M412.97 548.7H371.67V590H412.97V548.7Z" fill="#C6A76F"/>
<path d="M412.97 590H371.67V631.3H412.97V590Z" fill="#C6A76F"/>
<path d="M412.97 631.301H371.67V672.601H412.97V631.301Z" fill="#C6A76F"/>
<path d="M412.97 672.591H371.67V713.891H412.97V672.591Z" fill="#C6A76F"/>
<path d="M371.67 466.11H330.37V507.41H371.67V466.11Z" fill="#C6A76F"/>
<path d="M371.67 507.41H330.37V548.71H371.67V507.41Z" fill="#C6A76F"/>
<path d="M371.67 548.7H330.37V590H371.67V548.7Z" fill="#C6A76F"/>
<path d="M371.67 590H330.37V631.3H371.67V590Z" fill="#C6A76F"/>
<path d="M371.67 631.301H330.37V672.601H371.67V631.301Z" fill="#C6A76F"/>
<path d="M371.67 672.591H330.37V713.891H371.67V672.591Z" fill="#C6A76F"/>
<path d="M330.37 466.11H289.07V507.41H330.37V466.11Z" fill="#C6A76F"/>
<path d="M330.37 507.41H289.07V548.71H330.37V507.41Z" fill="#C6A76F"/>
<path d="M330.37 548.7H289.07V590H330.37V548.7Z" fill="#C6A76F"/>
<path d="M330.37 590H289.07V631.3H330.37V590Z" fill="#C6A76F"/>
<path d="M330.37 631.301H289.07V672.601H330.37V631.301Z" fill="#C6A76F"/>
<path d="M330.37 672.591H289.07V713.891H330.37V672.591Z" fill="#C6A76F"/>
<path d="M289.08 466.11H247.78V507.41H289.08V466.11Z" fill="#C6A76F"/>
<path d="M289.08 507.41H247.78V548.71H289.08V507.41Z" fill="#C6A76F"/>
<path d="M289.08 548.7H247.78V590H289.08V548.7Z" fill="#C6A76F"/>
<path d="M289.08 590H247.78V631.3H289.08V590Z" fill="#C6A76F"/>
<path d="M289.08 631.301H247.78V672.601H289.08V631.301Z" fill="#C6A76F"/>
<path d="M289.08 672.591H247.78V713.891H289.08V672.591Z" fill="#C6A76F"/>
<path d="M247.78 466.11H206.48V507.41H247.78V466.11Z" fill="#C6A76F"/>
<path d="M247.78 507.41H206.48V548.71H247.78V507.41Z" fill="#C6A76F"/>
<path d="M247.78 548.7H206.48V590H247.78V548.7Z" fill="#C6A76F"/>
<path d="M247.78 590H206.48V631.3H247.78V590Z" fill="#C6A76F"/>
<path d="M247.78 631.301H206.48V672.601H247.78V631.301Z" fill="#C6A76F"/>
<path d="M247.78 672.591H206.48V713.891H247.78V672.591Z" fill="#C6A76F"/>
</g>
<path d="M598.67 521.07H598.66L584.44 529.28L570.22 537.49" stroke="#DFE9ED" stroke-linecap="round" stroke-linejoin="round"/>
<path d="M598.67 521.06L612.89 512.85L598.67 521.06Z" fill="#DFE9ED"/>
<mask id="mask58_2_14685" style="mask-type:luminance" maskUnits="userSpaceOnUse" x="598" y="512" width="15" height="10">
<path d="M598.67 521.06L612.89 512.85L598.67 521.06Z" fill="white"/>
</mask>
<g mask="url(#mask58_2_14685)">
<path d="M619.45 507.409H578.15V548.709H619.45V507.409Z" fill="#77552C"/>
</g>
<mask id="mask59_2_14685" style="mask-type:luminance" maskUnits="userSpaceOnUse" x="598" y="512" width="15" height="10">
<path d="M598.67 521.06L612.89 512.85L598.67 521.06Z" fill="white"/>
</mask>
<g mask="url(#mask59_2_14685)">
<path d="M619.45 507.409H578.15V548.709H619.45V507.409Z" fill="#C6A76F"/>
</g>
<path d="M499.11 578.54L513.33 570.33L527.55 562.12H527.56L537.03 556.65" stroke="#DFE9ED" stroke-linecap="round" stroke-linejoin="round"/>
<path d="M484.89 586.75L499.11 578.55" stroke="#DFE9ED" stroke-linecap="round" stroke-linejoin="round"/>
<path d="M399.56 636.02L413.77 627.81H413.78L428 619.6L442.22 611.39L451.7 605.92" stroke="#DFE9ED" stroke-linecap="round" stroke-linejoin="round"/>
<path d="M385.33 644.23L399.55 636.03H399.56" stroke="#DFE9ED" stroke-linecap="round" stroke-linejoin="round"/>
<path d="M589.19 499.17L584.45 496.43H584.44" stroke="#DFE9ED" stroke-linecap="round" stroke-linejoin="round"/>
<path d="M598.67 504.65L603.41 507.38" stroke="#DFE9ED" stroke-linecap="round" stroke-linejoin="round"/>
<path d="M314.23 668.87L328.44 677.08L342.67 668.87H342.65C333.85 673.95 323.02 673.95 314.23 668.87Z" fill="#DFE9ED"/>
<mask id="mask60_2_14685" style="mask-type:luminance" maskUnits="userSpaceOnUse" x="314" y="668" width="29" height="10">
<path d="M314.23 668.87L328.44 677.08L342.67 668.87H342.65C333.85 673.95 323.02 673.95 314.23 668.87Z" fill="white"/>
</mask>
<g mask="url(#mask60_2_14685)">
<path d="M371.67 631.3H330.37V672.6H371.67V631.3Z" fill="#A07F57"/>
<path d="M371.67 672.59H330.37V713.89H371.67V672.59Z" fill="#A07F57"/>
<path d="M330.37 631.3H289.07V672.6H330.37V631.3Z" fill="#A07F57"/>
<path d="M330.37 672.59H289.07V713.89H330.37V672.59Z" fill="#A07F57"/>
</g>
<mask id="mask61_2_14685" style="mask-type:luminance" maskUnits="userSpaceOnUse" x="314" y="668" width="29" height="10">
<path d="M314.23 668.87L328.44 677.08L342.67 668.87H342.65C333.85 673.95 323.02 673.95 314.23 668.87Z" fill="white"/>
</mask>
<g mask="url(#mask61_2_14685)">
<path d="M371.67 631.3H330.37V672.6H371.67V631.3Z" fill="#C6A76F"/>
<path d="M371.67 672.59H330.37V713.89H371.67V672.59Z" fill="#C6A76F"/>
<path d="M330.37 631.3H289.07V672.6H330.37V631.3Z" fill="#C6A76F"/>
<path d="M330.37 672.59H289.07V713.89H330.37V672.59Z" fill="#C6A76F"/>
</g>
<path d="M304.74 663.4L314.22 668.87H314.23" stroke="#DFE9ED" stroke-linecap="round" stroke-linejoin="round"/>
<path d="M228.89 619.6L243.11 627.81L228.89 619.6Z" fill="#DFE9ED"/>
<mask id="mask62_2_14685" style="mask-type:luminance" maskUnits="userSpaceOnUse" x="228" y="619" width="16" height="9">
<path d="M228.89 619.6L243.11 627.81L228.89 619.6Z" fill="white"/>
</mask>
<g mask="url(#mask62_2_14685)">
<path d="M247.78 590H206.48V631.3H247.78V590Z" fill="#A07F57"/>
</g>
<mask id="mask63_2_14685" style="mask-type:luminance" maskUnits="userSpaceOnUse" x="228" y="619" width="16" height="9">
<path d="M228.89 619.6L243.11 627.81L228.89 619.6Z" fill="white"/>
</mask>
<g mask="url(#mask63_2_14685)">
<path d="M247.78 590H206.48V631.3H247.78V590Z" fill="#C6A76F"/>
</g>
<path d="M243.11 627.81L257.33 636.02L271.56 644.24" stroke="#DFE9ED" stroke-linecap="round" stroke-linejoin="round"/>
<path d="M252.59 605.92L257.33 603.18L269.63 596.08" stroke="#DFE9ED" stroke-linecap="round" stroke-linejoin="round"/>
</g>
<defs>
<clipPath id="clip0_2_14685">
<rect width="800" height="800" fill="white"/>
</clipPath>
</defs>
</svg>
