<svg width="800" height="800" viewBox="0 0 800 800" fill="none" xmlns="http://www.w3.org/2000/svg">
<path d="M721.24 559.03L653.64 519.99C652.41 522.11 650.64 523.92 648.44 525.19L641.34 529.29H641.33L627.11 537.5L612.89 545.71L598.67 553.92L584.45 562.13H584.44L570.22 570.35L556 578.55L541.78 586.77L527.56 594.98H527.55L513.34 603.19H513.33L499.11 611.4L484.89 619.61L470.67 627.82L456.45 636.03H456.44L442.22 644.25L428 652.46L413.78 660.67L399.56 668.88L385.33 677.09L371.12 685.3H371.11L356.89 693.51L342.67 701.72L342.66 701.73L337.09 704.94C332.93 707.34 328.02 707.86 323.52 706.53L385.04 742.5C394.29 747.91 405.72 747.93 414.99 742.56L721.24 565.24C723.63 563.86 723.63 560.41 721.24 559.03Z" fill="#DFE9ED"/>
<path d="M598.67 504.65L584.45 496.43H584.44L570.22 488.22L556 480.01L541.78 471.8L527.56 463.59H527.55L513.34 455.38H513.33L499.11 463.59L484.89 471.8L470.67 480.01L456.45 488.22H456.44L442.22 496.43L428 504.64L413.78 512.86L399.56 521.07L385.34 529.28H385.33L371.12 537.49H371.11L356.89 545.7L342.67 553.91L328.45 562.12H328.44L314.22 570.34L300 578.55L285.78 586.76L271.56 594.97L257.33 603.18L243.12 611.39H243.11L228.89 619.6L243.11 627.81L257.33 636.02L271.56 644.24L285.77 652.44H285.78L300 660.66L314.22 668.87H314.23L328.44 677.08L342.67 668.87L356.88 660.66H356.89L371.11 652.45L385.33 644.23L399.55 636.03H399.56L413.77 627.81H413.78L428 619.6L442.22 611.39L456.44 603.18L470.67 594.97L484.89 586.75L499.11 578.55L513.33 570.33L527.55 562.12H527.56L541.77 553.91H541.78L556 545.7L570.22 537.49L584.44 529.28L598.66 521.07H598.67L612.89 512.85L598.67 504.65ZM271.56 611.38V611.4H271.55L271.56 611.38ZM342.67 603.19H342.66L342.67 603.18V603.19ZM513.33 553.92L513.34 553.91H513.33V553.92Z" fill="#FFFFF8"/>
<path d="M598.67 176.2H598.66L584.44 167.99L570.22 159.78L556 151.57L555.99 151.56L541.78 143.36H541.77L527.56 135.16H527.55L513.33 126.95V143.37V192.63V241.9V258.33V291.17V307.59V356.86V406.13V455.39H513.34L527.55 463.59H527.56L541.78 471.81L556 480.02L570.22 488.23L584.44 496.44H584.45L598.67 504.65L612.89 512.86V463.6V430.76V348.65V315.8V299.38V282.96V250.11V200.85V163.89L598.67 176.21V176.2ZM527.56 282.95H527.55L527.56 282.94V282.95ZM570.22 274.74V274.72H570.23L570.22 274.74ZM570.22 225.47L570.23 225.46H570.22V225.47ZM598.67 488.23H598.66L598.67 488.22V488.23ZM598.67 373.27H598.66L598.67 373.26V373.27Z" fill="#EAEACC"/>
<path d="M399.56 157.95V94.0897V61.2497V49.5297C399.56 48.0697 399.17 46.6697 398.47 45.4497C397.77 44.2297 396.75 43.1997 395.49 42.4697L385.34 36.6097L381.03 34.1197C380.26 33.6797 379.47 33.2897 378.67 32.9597C376.25 31.9597 373.68 31.4697 371.12 31.4697C370.69 31.4697 370.26 31.4797 369.84 31.5097C367.28 31.6797 364.74 32.3397 362.37 33.4997C361.98 33.6897 361.59 33.8997 361.2 34.1197L356.89 36.6097L342.67 44.8197L328.45 53.0297H328.44L314.22 61.2397L300.01 69.4497H300L285.78 77.6597L271.56 85.8697L263.91 90.2897C261.88 91.4597 260.24 93.1297 259.1 95.0897C257.96 97.0597 257.33 99.3197 257.33 101.68V104.25C257.33 106.79 258.34 109.22 260.13 111.01L262.74 113.62C268.38 119.26 271.55 126.92 271.55 134.9V135.13V167.97V241.87L299.99 221.06V167.98V151.56V118.71V102.29L314.21 94.0797L328.43 85.8697H328.44L342.66 77.6597L356.88 69.4497L365.28 64.5997C367.87 63.1097 371.1 64.9697 371.1 67.9597V77.6597V94.0797V110.5V180.19L399.55 157.95H399.56ZM282.33 141.33C282.33 141.33 282.34 141.33 282.35 141.33H282.34H282.33Z" fill="#53576B"/>
<path d="M627.11 537.49V521.07V521.06L634.68 500.27L627.1 504.65L612.89 512.85L598.67 521.06V521.07H598.66L584.44 529.28L570.22 537.49L556 545.7L541.78 553.91H541.77L527.56 562.12H527.55L513.33 570.33L499.11 578.54V578.55L484.89 586.75L470.67 594.96V594.97L456.44 603.18L442.22 611.39L428 619.6L413.78 627.81H413.77L399.56 636.02V636.03H399.55L385.33 644.23L371.11 652.44V652.45L356.89 660.65V660.66V677.08V693.5L371.11 685.29H371.12L385.33 677.08L399.56 668.87L413.78 660.66L428 652.45L442.22 644.24L456.44 636.03V636.02H456.45L470.67 627.81L484.89 619.6L499.11 611.39L513.33 603.18H513.34L527.55 594.97H527.56L541.78 586.76L556 578.55V578.54L570.22 570.34L584.44 562.13V562.12H584.45L598.67 553.91L612.89 545.7L627.11 537.49Z" fill="#CECDAE"/>
<path d="M356.89 660.66H356.88L342.67 668.86L342.66 668.88C333.86 673.95 323.03 673.95 314.23 668.88H314.22L300 660.67V677.09V693.51L314.22 701.72L319.79 704.94C325.14 708.03 331.73 708.03 337.09 704.94L342.66 701.73H342.67L356.89 693.51V660.67V660.66Z" fill="#EAEACC"/>
<path d="M300 677.08V660.66L285.78 652.45L285.77 652.44L271.56 644.24L257.33 636.02L243.11 627.81L228.89 619.6L214.67 611.39V627.81V644.23L228.89 652.44L243.11 660.65L243.12 660.66L257.33 668.86L271.56 677.08L285.78 685.29L300 693.5V677.09V677.08ZM271.55 660.66H271.56V660.67H271.55V660.66Z" fill="#EAEACC"/>
<path d="M271.56 578.549L285.77 570.339H285.78L300 562.119L314.22 553.909L328.44 545.699H328.45L342.67 537.489L356.89 529.279L371.11 521.069H371.12L385.33 512.859L399.56 504.649L413.78 496.429L428 488.219L442.22 480.009L456.44 471.799H456.45L470.67 463.589L484.89 455.379L499.11 447.169V430.749V414.329V381.479V365.059V299.369V266.529V184.409V167.989V151.569L484.89 159.779L470.67 167.979L456.45 176.199H456.44L442.22 184.409L428.01 192.619H428L413.78 200.829L399.56 209.039L385.34 217.249H385.33L371.12 225.459H371.11L356.89 233.679L342.67 241.889L328.45 250.099H328.44L314.22 258.309L300 266.519L285.78 274.729L271.56 282.939L257.33 291.159L243.12 299.359H243.11V315.779V414.319V430.739V447.159V512.849V545.699V562.119V578.539V594.969L257.33 586.759L271.56 578.549ZM385.33 332.219L385.34 332.209H385.33V332.219ZM399.56 274.739H399.55L399.56 274.719V274.739ZM356.89 299.369H356.88L356.89 299.359V299.369Z" fill="#CECDAE"/>
<path d="M243.12 611.39L257.33 603.18L271.56 594.97L285.78 586.76L300 578.55L314.22 570.34L328.44 562.13L328.45 562.12L342.67 553.91L356.89 545.7L371.11 537.49H371.12L385.33 529.28H385.34L399.56 521.07L413.78 512.86L428 504.65L442.22 496.44L456.44 488.23L456.45 488.22L470.67 480.01L484.89 471.8L499.11 463.59L513.33 455.38V406.12V356.85V307.58V291.16V258.32V241.89V192.62V143.36V126.93L499.11 135.14L484.89 143.35L470.67 151.56L456.45 159.77H456.44L442.22 167.98L428 176.2L413.78 184.4L399.56 192.62L385.33 200.83L371.12 209.04H371.11L356.89 217.25L342.67 225.46L328.44 233.68L314.22 241.88L300 250.1L285.78 258.31H285.77L271.56 266.52L257.33 274.73L243.11 282.94L228.89 285.96V323.99V373.26V537.49V586.75V619.6L243.11 611.39H243.12ZM243.11 578.55V562.13V545.71V512.86V447.17V430.75V414.33V315.79V299.37L243.12 299.36L257.33 291.16L271.56 282.95L285.78 274.73L300 266.52L314.22 258.31L328.44 250.1H328.45L342.67 241.89L356.89 233.68L371.11 225.47L371.12 225.46L385.33 217.26L385.34 217.25L399.56 209.04L413.78 200.83L428 192.62H428.01L442.22 184.41L456.44 176.2H456.45L470.67 167.99L484.89 159.78L499.11 151.57V167.98V184.4V266.52V299.36V365.05V381.47V414.32V430.74V447.16L484.89 455.38L470.67 463.59L456.45 471.8H456.44L442.22 480.01L428 488.22L413.78 496.43L399.56 504.64L385.33 512.86L371.12 521.07H371.11L356.89 529.28L342.67 537.49L328.45 545.7H328.44L314.22 553.91L300 562.12L285.78 570.33L285.77 570.34L271.56 578.54L257.33 586.76L243.11 594.97V578.55Z" fill="#CECDAE"/>
<path d="M200.45 636.02L214.66 644.23H214.67V627.82V611.39L200.44 603.18L186.23 594.97H186.22V614.56C186.22 622.76 190.59 630.33 197.69 634.43L200.44 636.02H200.45Z" fill="#EAEACC"/>
<path d="M214.67 282.94L200.45 274.73H200.44L190.03 268.72C187.57 272.97 186.22 277.86 186.22 282.94V299.36V315.78V430.74V463.58V496.43V512.85V545.7V562.12V578.54V594.97H186.23L200.44 603.18L214.67 611.39L228.89 619.6V586.76V537.5V373.27H228.88L228.89 373.26V324V288.1C225.48 288.1 222.07 287.22 219.01 285.45L214.67 282.94ZM200.44 488.23L200.45 488.22H200.44V488.23ZM200.44 373.27L200.45 373.26H200.44V373.27Z" fill="#EAEACC"/>
<path d="M641.33 496.43L632.29 501.65C629.08 503.51 627.11 506.93 627.11 510.64V521.06V537.49L641.33 529.28H641.34L648.44 525.18C652.84 522.64 655.55 517.94 655.56 512.86V504.65V488.22H655.55L641.33 496.43Z" fill="#CECDAE"/>
<path d="M653.42 161.01L641.34 167.98H641.33L627.11 176.2L623.32 178.39C620.09 180.25 616.49 181.18 612.89 181.18V200.83V250.09V282.94V299.36V315.78V348.63V430.74V463.58V512.85L627.1 504.65H627.11L641.33 496.43L655.55 488.22H655.56V471.81V455.38V438.96V422.54V389.69H655.55L655.56 389.68V373.27V356.85H655.55L655.56 356.84V307.58V291.16V241.89H655.55L655.56 241.88V225.47V209.05H655.55L655.56 209.04V176.16C655.56 175.76 655.56 172.48 655.56 168.96C655.56 166.12 654.8 163.39 653.43 161.01H653.42ZM641.33 315.79L641.34 315.78H641.33V315.79ZM641.33 282.95L641.34 282.94H641.33V282.95Z" fill="#CECDAE"/>
<path d="M598.67 159.779H598.66L598.67 159.769V159.779Z" fill="#FFFFF8"/>
<path d="M243.11 233.679L238.37 236.419L228.89 241.889L214.67 250.099H214.66L200.44 258.309C196.04 260.849 192.49 264.469 190.03 268.719L200.44 274.729H200.45L214.67 282.939L219.01 285.449C222.07 287.209 225.48 288.099 228.89 288.099C232.3 288.099 235.71 287.219 238.77 285.459L240.57 284.419L243.11 282.949L257.33 274.729L271.56 266.519L289.24 256.239L484.89 143.349L499.11 135.139L500.89 134.109C508.59 129.659 518.08 129.659 525.78 134.109L527.56 135.139H527.57L541.78 143.349H541.79L556 151.559H556.01L570.23 159.779L584.45 167.979L598.67 176.199H598.68L602.47 178.389C605.7 180.249 609.3 181.179 612.9 181.179C616.5 181.179 620.1 180.249 623.33 178.389L627.12 176.199L641.34 167.989L641.35 167.979L653.43 161.009C652.06 158.629 650.07 156.609 647.61 155.189L641.33 151.559L627.11 143.349H627.1L612.89 135.149L598.67 126.939L598.66 126.929L584.44 118.719L570.22 110.509L556 102.299L541.78 94.0893H541.77L527.56 85.8793H527.55C518.75 80.7993 507.91 80.7993 499.1 85.8793L484.89 94.0793L470.67 102.289L470.66 102.299L456.45 110.509L243.11 233.679Z" fill="#FFFFF8"/>
<path d="M655.56 209.04V168.51C655.56 163.11 652.68 158.12 648 155.42L641.33 151.56L627.11 143.35H627.1L612.89 135.14L598.67 126.93H598.66L584.44 118.72L570.22 110.51L541.78 94.0896H541.77L527.56 85.8796H527.55C523.15 83.3296 518.22 82.0596 513.32 82.0596C508.42 82.0596 503.51 83.3296 499.11 85.8796H499.1L484.89 94.0896L470.67 102.3H470.66L456.45 110.51L386.84 150.69L371.12 159.77H371.11L356.89 167.99L342.67 176.2H342.66L328.45 184.41H328.44L243.11 233.68L228.89 241.89L214.67 250.1H214.66L200.44 258.31C191.64 263.39 186.22 272.78 186.22 282.94V614.56C186.22 622.76 190.59 630.33 197.69 634.43L200.44 636.02H200.45L214.66 644.23H214.67L228.89 652.44L243.11 660.66H243.12L257.33 668.87L271.56 677.08L285.78 685.29L300 693.5L314.22 701.71L319.79 704.93C325.14 708.02 331.74 708.02 337.09 704.93L342.66 701.72L342.67 701.71L356.89 693.5L371.11 685.29H371.12L385.33 677.08L399.56 668.87L413.78 660.66L428 652.45L442.22 644.24L456.44 636.02H456.45L470.67 627.81L484.89 619.6L499.11 611.39L513.33 603.18H513.34L527.55 594.97H527.56L541.78 586.76L556 578.54L570.22 570.34L584.44 562.12H584.45L598.67 553.91L612.89 545.7L627.11 537.49L641.33 529.28H641.34L648.44 525.18C652.84 522.64 655.55 517.94 655.56 512.86V389.68M655.56 209.04H655.55M655.56 209.04V241.88M655.56 241.88H655.55M655.56 241.88V356.84M655.56 356.84H655.55M655.56 356.84V389.68M655.56 389.68H655.55" stroke="#C1BF93" stroke-width="3" stroke-miterlimit="10"/>
<path d="M228.89 322.27V338.69L243.11 330.48H243.12L257.33 322.27L271.56 314.06L285.78 305.85L300 297.64L314.22 289.43L328.44 281.22V281.21H328.45L342.67 273L356.89 264.79L371.11 256.58H371.12L385.33 248.37H385.34L399.56 240.16L413.78 231.95L428 223.74V223.73L442.22 215.53V215.52L456.44 207.32V207.31H456.45L470.67 199.1L484.89 190.89L499.11 182.68L513.33 174.47V174.46V158.05L228.89 322.27Z" fill="#B7B592"/>
<path d="M513.33 158.05V174.46H513.34L527.55 182.66H527.56L541.78 190.88L556 199.09L570.22 207.3L584.44 215.51H584.45L598.67 223.72L612.89 231.93V215.52L513.33 158.04V158.05ZM598.67 207.32H598.66L598.67 207.31V207.32Z" fill="#B7B592"/>
</svg>
