<svg width="800" height="800" viewBox="0 0 800 800" fill="none" xmlns="http://www.w3.org/2000/svg">
<mask id="mask0_2_10388" style="mask-type:luminance" maskUnits="userSpaceOnUse" x="190" y="467" width="461" height="290">
<path d="M332 756.32L650.62 571.61L515.89 467L195.3 664.74L190.99 683.95L332 756.32Z" fill="white"/>
</mask>
<g mask="url(#mask0_2_10388)">
<path d="M660.74 454.26H619.44V495.56H660.74V454.26Z" fill="#DFE9ED"/>
<path d="M660.74 495.56H619.44V536.86H660.74V495.56Z" fill="#DFE9ED"/>
<path d="M660.74 536.85H619.44V578.15H660.74V536.85Z" fill="#DFE9ED"/>
<path d="M660.74 578.149H619.44V619.449H660.74V578.149Z" fill="#DFE9ED"/>
<path d="M660.74 619.439H619.44V660.739H660.74V619.439Z" fill="#DFE9ED"/>
<path d="M660.74 660.739H619.44V702.039H660.74V660.739Z" fill="#DFE9ED"/>
<path d="M660.74 702.04H619.44V743.34H660.74V702.04Z" fill="#DFE9ED"/>
<path d="M660.74 743.33H619.44V784.63H660.74V743.33Z" fill="#DFE9ED"/>
<path d="M619.45 454.26H578.15V495.56H619.45V454.26Z" fill="#DFE9ED"/>
<path d="M619.45 495.56H578.15V536.86H619.45V495.56Z" fill="#DFE9ED"/>
<path d="M619.45 536.85H578.15V578.15H619.45V536.85Z" fill="#DFE9ED"/>
<path d="M619.45 578.149H578.15V619.449H619.45V578.149Z" fill="#DFE9ED"/>
<path d="M619.45 619.439H578.15V660.739H619.45V619.439Z" fill="#DFE9ED"/>
<path d="M619.45 660.739H578.15V702.039H619.45V660.739Z" fill="#DFE9ED"/>
<path d="M619.45 702.04H578.15V743.34H619.45V702.04Z" fill="#DFE9ED"/>
<path d="M619.45 743.33H578.15V784.63H619.45V743.33Z" fill="#DFE9ED"/>
<path d="M578.151 454.26H536.851V495.56H578.151V454.26Z" fill="#DFE9ED"/>
<path d="M578.151 495.56H536.851V536.86H578.151V495.56Z" fill="#DFE9ED"/>
<path d="M578.151 536.85H536.851V578.15H578.151V536.85Z" fill="#DFE9ED"/>
<path d="M578.151 578.149H536.851V619.449H578.151V578.149Z" fill="#DFE9ED"/>
<path d="M578.151 619.439H536.851V660.739H578.151V619.439Z" fill="#DFE9ED"/>
<path d="M578.151 660.739H536.851V702.039H578.151V660.739Z" fill="#DFE9ED"/>
<path d="M578.151 702.04H536.851V743.34H578.151V702.04Z" fill="#DFE9ED"/>
<path d="M578.151 743.33H536.851V784.63H578.151V743.33Z" fill="#DFE9ED"/>
<path d="M536.861 454.26H495.561V495.56H536.861V454.26Z" fill="#DFE9ED"/>
<path d="M536.861 495.56H495.561V536.86H536.861V495.56Z" fill="#DFE9ED"/>
<path d="M536.861 536.85H495.561V578.15H536.861V536.85Z" fill="#DFE9ED"/>
<path d="M536.861 578.149H495.561V619.449H536.861V578.149Z" fill="#DFE9ED"/>
<path d="M536.861 619.439H495.561V660.739H536.861V619.439Z" fill="#DFE9ED"/>
<path d="M536.861 660.739H495.561V702.039H536.861V660.739Z" fill="#DFE9ED"/>
<path d="M536.861 702.04H495.561V743.34H536.861V702.04Z" fill="#DFE9ED"/>
<path d="M536.861 743.33H495.561V784.63H536.861V743.33Z" fill="#DFE9ED"/>
<path d="M495.56 454.26H454.26V495.56H495.56V454.26Z" fill="#DFE9ED"/>
<path d="M495.56 495.56H454.26V536.86H495.56V495.56Z" fill="#DFE9ED"/>
<path d="M495.56 536.85H454.26V578.15H495.56V536.85Z" fill="#DFE9ED"/>
<path d="M495.56 578.149H454.26V619.449H495.56V578.149Z" fill="#DFE9ED"/>
<path d="M495.56 619.439H454.26V660.739H495.56V619.439Z" fill="#DFE9ED"/>
<path d="M495.56 660.739H454.26V702.039H495.56V660.739Z" fill="#DFE9ED"/>
<path d="M495.56 702.04H454.26V743.34H495.56V702.04Z" fill="#DFE9ED"/>
<path d="M495.56 743.33H454.26V784.63H495.56V743.33Z" fill="#DFE9ED"/>
<path d="M454.26 454.26H412.96V495.56H454.26V454.26Z" fill="#DFE9ED"/>
<path d="M454.26 495.56H412.96V536.86H454.26V495.56Z" fill="#DFE9ED"/>
<path d="M454.26 536.85H412.96V578.15H454.26V536.85Z" fill="#DFE9ED"/>
<path d="M454.26 578.149H412.96V619.449H454.26V578.149Z" fill="#DFE9ED"/>
<path d="M454.26 619.439H412.96V660.739H454.26V619.439Z" fill="#DFE9ED"/>
<path d="M454.26 660.739H412.96V702.039H454.26V660.739Z" fill="#DFE9ED"/>
<path d="M454.26 702.04H412.96V743.34H454.26V702.04Z" fill="#DFE9ED"/>
<path d="M454.26 743.33H412.96V784.63H454.26V743.33Z" fill="#DFE9ED"/>
<path d="M412.97 454.26H371.67V495.56H412.97V454.26Z" fill="#DFE9ED"/>
<path d="M412.97 495.56H371.67V536.86H412.97V495.56Z" fill="#DFE9ED"/>
<path d="M412.97 536.85H371.67V578.15H412.97V536.85Z" fill="#DFE9ED"/>
<path d="M412.97 578.149H371.67V619.449H412.97V578.149Z" fill="#DFE9ED"/>
<path d="M412.97 619.439H371.67V660.739H412.97V619.439Z" fill="#DFE9ED"/>
<path d="M412.97 660.739H371.67V702.039H412.97V660.739Z" fill="#DFE9ED"/>
<path d="M412.97 702.04H371.67V743.34H412.97V702.04Z" fill="#DFE9ED"/>
<path d="M412.97 743.33H371.67V784.63H412.97V743.33Z" fill="#DFE9ED"/>
<path d="M371.671 454.26H330.371V495.56H371.671V454.26Z" fill="#DFE9ED"/>
<path d="M371.671 495.56H330.371V536.86H371.671V495.56Z" fill="#DFE9ED"/>
<path d="M371.671 536.85H330.371V578.15H371.671V536.85Z" fill="#DFE9ED"/>
<path d="M371.671 578.149H330.371V619.449H371.671V578.149Z" fill="#DFE9ED"/>
<path d="M371.671 619.439H330.371V660.739H371.671V619.439Z" fill="#DFE9ED"/>
<path d="M371.671 660.739H330.371V702.039H371.671V660.739Z" fill="#DFE9ED"/>
<path d="M371.671 702.04H330.371V743.34H371.671V702.04Z" fill="#DFE9ED"/>
<path d="M371.671 743.33H330.371V784.63H371.671V743.33Z" fill="#DFE9ED"/>
<path d="M330.37 454.26H289.07V495.56H330.37V454.26Z" fill="#DFE9ED"/>
<path d="M330.37 495.56H289.07V536.86H330.37V495.56Z" fill="#DFE9ED"/>
<path d="M330.37 536.85H289.07V578.15H330.37V536.85Z" fill="#DFE9ED"/>
<path d="M330.37 578.149H289.07V619.449H330.37V578.149Z" fill="#DFE9ED"/>
<path d="M330.37 619.439H289.07V660.739H330.37V619.439Z" fill="#DFE9ED"/>
<path d="M330.37 660.739H289.07V702.039H330.37V660.739Z" fill="#DFE9ED"/>
<path d="M330.37 702.04H289.07V743.34H330.37V702.04Z" fill="#DFE9ED"/>
<path d="M330.37 743.33H289.07V784.63H330.37V743.33Z" fill="#DFE9ED"/>
<path d="M289.08 454.26H247.78V495.56H289.08V454.26Z" fill="#DFE9ED"/>
<path d="M289.08 495.56H247.78V536.86H289.08V495.56Z" fill="#DFE9ED"/>
<path d="M289.08 536.85H247.78V578.15H289.08V536.85Z" fill="#DFE9ED"/>
<path d="M289.08 578.149H247.78V619.449H289.08V578.149Z" fill="#DFE9ED"/>
<path d="M289.08 619.439H247.78V660.739H289.08V619.439Z" fill="#DFE9ED"/>
<path d="M289.08 660.739H247.78V702.039H289.08V660.739Z" fill="#DFE9ED"/>
<path d="M289.08 702.04H247.78V743.34H289.08V702.04Z" fill="#DFE9ED"/>
<path d="M289.08 743.33H247.78V784.63H289.08V743.33Z" fill="#DFE9ED"/>
<path d="M247.78 454.26H206.48V495.56H247.78V454.26Z" fill="#DFE9ED"/>
<path d="M247.78 495.56H206.48V536.86H247.78V495.56Z" fill="#DFE9ED"/>
<path d="M247.78 536.85H206.48V578.15H247.78V536.85Z" fill="#DFE9ED"/>
<path d="M247.78 578.149H206.48V619.449H247.78V578.149Z" fill="#DFE9ED"/>
<path d="M247.78 619.439H206.48V660.739H247.78V619.439Z" fill="#DFE9ED"/>
<path d="M247.78 660.739H206.48V702.039H247.78V660.739Z" fill="#DFE9ED"/>
<path d="M247.78 702.04H206.48V743.34H247.78V702.04Z" fill="#DFE9ED"/>
<path d="M247.78 743.33H206.48V784.63H247.78V743.33Z" fill="#DFE9ED"/>
<path d="M206.49 454.26H165.19V495.56H206.49V454.26Z" fill="#DFE9ED"/>
<path d="M206.49 495.56H165.19V536.86H206.49V495.56Z" fill="#DFE9ED"/>
<path d="M206.49 536.85H165.19V578.15H206.49V536.85Z" fill="#DFE9ED"/>
<path d="M206.49 578.149H165.19V619.449H206.49V578.149Z" fill="#DFE9ED"/>
<path d="M206.49 619.439H165.19V660.739H206.49V619.439Z" fill="#DFE9ED"/>
<path d="M206.49 660.739H165.19V702.039H206.49V660.739Z" fill="#DFE9ED"/>
<path d="M206.49 702.04H165.19V743.34H206.49V702.04Z" fill="#DFE9ED"/>
<path d="M206.49 743.33H165.19V784.63H206.49V743.33Z" fill="#DFE9ED"/>
</g>
<path d="M385.33 102.3V118.71V118.72H385.34L399.56 115.89V94.0901V94.0802V77.6602L385.33 80.4402V102.3Z" fill="#A5B1C4"/>
<path d="M385.33 102.3V80.4402L371.12 77.6602H371.11V77.6702V94.0802V94.0901V110.5V110.51V126.93L385.33 118.72V118.71V102.3Z" fill="#DFE9ED"/>
<path d="M285.78 192.619V192.609V176.199V159.769V141.279L282.33 141.329L281.78 139.499L271.56 135.149V151.559V167.979V167.989V184.409V200.819L285.77 192.619H285.78Z" fill="#DFE9ED"/>
<mask id="mask1_2_10388" style="mask-type:luminance" maskUnits="userSpaceOnUse" x="271" y="135" width="29" height="66">
<path d="M289.68 141.099C287.26 142.489 284.28 142.489 281.86 141.099L271.56 135.159V167.989V200.829L285.77 192.629H285.78L300 184.419V167.999V151.579V135.149L289.68 141.109V141.099Z" fill="white"/>
</mask>
<g mask="url(#mask1_2_10388)">
<path d="M300 167.98V151.57V151.56V135.14L285.78 139.78V143.36V159.77V176.2V192.61L300 184.41V167.99V167.98Z" fill="#A5B1C4"/>
</g>
<mask id="mask2_2_10388" style="mask-type:luminance" maskUnits="userSpaceOnUse" x="257" y="31" width="143" height="112">
<path d="M385.33 36.6098L381.02 34.1198C374.88 30.5798 367.33 30.5798 361.19 34.1198L356.88 36.6098L342.66 44.8198L328.44 53.0298H328.43L314.21 61.2398L300 69.4498H299.99L285.77 77.6598L271.55 85.8698L263.9 90.2898C259.83 92.6398 257.32 96.9799 257.32 101.68V104.25C257.32 106.79 258.33 109.22 260.12 111.01L262.73 113.62C268.37 119.26 271.54 126.92 271.54 134.9V135.13L281.84 141.08C284.26 142.48 287.24 142.48 289.66 141.08L299.98 135.12V118.7V102.28L314.2 94.0698L328.42 85.8598L328.43 85.8498L342.65 77.6398L356.87 69.4298L365.27 64.5798C367.86 63.0898 371.09 64.9498 371.09 67.9398V77.6398H371.1L377.97 81.6098C382.51 84.2298 388.1 84.2298 392.64 81.6098L399.53 77.6298V61.2198V49.4998C399.53 46.5898 397.98 43.8998 395.45 42.4398L385.3 36.5798L385.33 36.6098Z" fill="white"/>
</mask>
<g mask="url(#mask2_2_10388)">
<path d="M290.42 107.82C287.55 109.48 284.01 109.48 281.14 107.82L271.56 102.29L257.34 94.0801H257.33V104.26C257.33 106.8 258.34 109.23 260.13 111.02L262.74 113.63C268.38 119.27 271.55 126.93 271.55 134.91V135.14L285.76 143.35H285.77L299.99 135.14V118.72V102.3L290.41 107.82H290.42Z" fill="#353644"/>
<path d="M380.67 50.3403L371.11 44.8203L356.89 53.0303L342.67 61.2403L328.44 69.4503L314.23 77.6603H314.22L300 85.8703L290.42 91.4003C288.35 92.5903 288.35 95.5703 290.41 96.7803L300 102.3L314.22 94.0903L328.44 85.8803L328.45 85.8703L342.67 77.6603L356.89 69.4503L365.29 64.6003C367.88 63.1103 371.11 64.9703 371.11 67.9603V77.6603H371.12L385.33 85.8703L399.56 77.6603V61.2503V44.8203L389.99 50.3403C387.1 52.0103 383.55 52.0003 380.66 50.3403H380.67Z" fill="#353644"/>
<path d="M290.57 107.74L300 102.3L292.86 98.1901L290.79 96.9901C288.56 95.6901 288.56 92.4701 290.79 91.1801L299.99 85.8701L314.21 77.6601H314.22L328.43 69.4501L342.66 61.2401L356.88 53.0301L365.73 47.9201C369.05 46.0001 373.15 46.0001 376.47 47.9201L381.17 50.6301C383.74 52.1101 386.9 52.1101 389.47 50.6301L399.55 44.8101L385.32 36.6001L381.01 34.1101C374.87 30.5701 367.32 30.5701 361.18 34.1101L356.87 36.6001L342.65 44.8101L328.43 53.0201H328.42L314.2 61.2301L299.99 69.4401H299.98L285.76 77.6501L271.54 85.8601L257.32 94.0701L271.54 102.28L280.97 107.73C283.93 109.44 287.58 109.44 290.54 107.73L290.57 107.74Z" fill="#53576B"/>
</g>
<path d="M349.75 705.81L325 693.22C315.9 688.98 297.67 696.33 292.65 707.24C286.12 721.45 288.26 735.81 293.96 739.88C294.47 740.25 297.66 742.38 298.26 742.55L321.19 755.28L349.75 705.81Z" fill="url(#paint0_linear_2_10388)"/>
<path d="M351.352 739.72C359.239 726.06 358.521 710.88 349.75 705.816C340.978 700.751 327.473 707.72 319.587 721.38C311.7 735.04 312.418 750.219 321.19 755.283C329.961 760.348 343.466 753.38 351.352 739.72Z" fill="#353644"/>
<path d="M342.4 718.749C341.12 718.009 339.62 717.809 338.05 718.069C339.31 721.449 338.68 726.339 336.06 730.879C333.44 735.419 329.52 738.409 325.96 739.009C326.52 740.499 327.44 741.699 328.72 742.439C332.92 744.869 339.39 741.529 343.17 734.979C346.95 728.429 346.6 721.169 342.4 718.739V718.749Z" fill="#A5B1C4"/>
<path d="M336.05 730.879C338.67 726.339 339.3 721.449 338.04 718.069C334.48 718.669 330.56 721.659 327.94 726.199C325.32 730.739 324.69 735.629 325.95 739.009C329.51 738.409 333.43 735.419 336.05 730.879Z" fill="#DFE9ED"/>
<path d="M661.7 524.08L636.95 511.49C627.85 507.25 609.62 514.6 604.6 525.51C598.07 539.72 600.21 554.08 605.91 558.15C606.42 558.52 609.61 560.65 610.21 560.82L633.14 573.55L661.7 524.08Z" fill="url(#paint1_linear_2_10388)"/>
<path d="M663.305 557.988C671.191 544.328 670.474 529.149 661.702 524.084C652.93 519.02 639.425 525.988 631.539 539.648C623.652 553.308 624.37 568.487 633.142 573.552C641.914 578.616 655.418 571.648 663.305 557.988Z" fill="#353644"/>
<path d="M654.34 537.02C653.06 536.28 651.56 536.08 649.99 536.34C651.25 539.72 650.62 544.61 648 549.15C645.38 553.69 641.46 556.68 637.9 557.28C638.46 558.77 639.38 559.97 640.66 560.71C644.86 563.14 651.33 559.8 655.11 553.25C658.89 546.71 658.54 539.44 654.34 537.01V537.02Z" fill="#A5B1C4"/>
<path d="M648 549.16C650.62 544.62 651.25 539.73 649.99 536.35C646.43 536.95 642.51 539.94 639.89 544.48C637.27 549.02 636.64 553.91 637.9 557.29C641.46 556.69 645.38 553.7 648 549.16Z" fill="#DFE9ED"/>
<path d="M233.12 642.01L208.37 629.42C199.27 625.18 181.04 632.53 176.02 643.44C169.49 657.65 171.63 672.01 177.33 676.08C177.84 676.45 181.03 678.58 181.63 678.75L204.56 691.48L233.12 642.01Z" fill="url(#paint2_linear_2_10388)"/>
<path d="M234.725 675.914C242.612 662.254 241.894 647.075 233.122 642.01C224.35 636.946 210.846 643.914 202.959 657.574C195.073 671.234 195.79 686.413 204.562 691.478C213.334 696.542 226.838 689.574 234.725 675.914Z" fill="#353644"/>
<path d="M225.76 654.95C224.48 654.21 222.98 654.01 221.41 654.27C222.67 657.65 222.04 662.54 219.42 667.08C216.8 671.62 212.88 674.61 209.32 675.21C209.88 676.7 210.8 677.9 212.08 678.64C216.28 681.07 222.75 677.73 226.53 671.18C230.31 664.63 229.96 657.37 225.76 654.94V654.95Z" fill="#A5B1C4"/>
<path d="M219.42 667.08C222.04 662.54 222.67 657.65 221.41 654.27C217.85 654.87 213.93 657.86 211.31 662.4C208.69 666.94 208.06 671.83 209.32 675.21C212.88 674.61 216.8 671.62 219.42 667.08Z" fill="#DFE9ED"/>
<path d="M627.11 537.49V521.07V521.06L634.68 500.27L627.1 504.65L612.89 512.85L598.67 521.06V521.07H598.66L584.44 529.28L570.22 537.49L556 545.7L541.78 553.91H541.77L527.56 562.12H527.55L513.33 570.33L499.11 578.54V578.55L484.89 586.75L470.67 594.96V594.97L456.44 603.18L442.22 611.39L428 619.6L413.78 627.81H413.77L399.56 636.02V636.03H399.55L385.33 644.23L371.11 652.44V652.45L356.89 660.65V660.66V677.08V693.5L371.11 685.29H371.12L385.33 677.08L399.56 668.87L413.78 660.66L428 652.45L442.22 644.24L456.44 636.03V636.02H456.45L470.67 627.81L484.89 619.6L499.11 611.39L513.33 603.18H513.34L527.55 594.97H527.56L541.78 586.76L556 578.55V578.54L570.22 570.34L584.44 562.13V562.12H584.45L598.67 553.91L612.89 545.7L627.11 537.49Z" fill="#CECDAE"/>
<path d="M612.89 480.01V463.59V430.75V348.64V315.79V299.37V282.95V250.1V200.84V163.88L598.67 176.21H598.66L584.44 168V184.41V217.26V233.68V250.1V266.53V282.94V299.37V332.21V365.06V414.33V430.75V447.17V496.44H584.45L598.67 504.65L612.89 512.86V480.02V480.01Z" fill="#EAEACC"/>
<path d="M598.67 504.64L584.45 496.43H584.44L570.22 504.64L556 512.85L541.78 521.06L527.56 529.27L527.55 529.28L513.33 537.49L499.11 545.7L484.89 553.91L470.67 562.12H470.66L456.45 570.33H456.44L442.22 578.54L428 586.76L413.78 594.97L399.56 603.18L385.33 611.39L371.11 619.6H371.1L356.89 627.81L342.67 636.02H342.66L328.44 644.24L314.22 652.44L300 660.66L314.22 668.87H314.23L328.44 677.08L342.67 668.87L356.88 660.66H356.89L371.11 652.45L385.33 644.23L399.55 636.03H399.56L413.77 627.81H413.78L428 619.6L442.22 611.39L456.44 603.18L470.67 594.97L484.89 586.75L499.11 578.55L513.33 570.33L527.55 562.12H527.56L541.77 553.91H541.78L556 545.7L570.22 537.49L584.44 529.28L598.66 521.07H598.67L612.89 512.85L598.67 504.65V504.64ZM513.33 553.92L513.34 553.91H513.33V553.92Z" fill="#FFFFF8"/>
<path d="M541.77 143.349L527.56 135.149H527.55L513.33 126.939V143.359V192.619V241.889V258.319V291.159V307.579V356.849V406.119V455.379L513.34 455.389L527.55 463.589H527.56L541.78 471.809V455.389V406.129V373.279V356.859V225.479V192.629V143.369L541.77 143.359V143.349ZM527.56 282.949H527.55L527.56 282.939V282.949Z" fill="#EAEACC"/>
<path d="M371.12 159.77L385.33 151.56V135.14L371.11 143.35V159.77H371.12Z" fill="#DFE9ED"/>
<path d="M356.89 660.66H356.88L342.67 668.86L342.66 668.88C333.86 673.95 323.03 673.95 314.23 668.88H314.22L300 660.67V677.09V693.51L314.22 701.72L319.79 704.94C325.14 708.03 331.73 708.03 337.09 704.94L342.66 701.73H342.67L356.89 693.51V660.67V660.66Z" fill="#353644"/>
<path d="M413.78 167.989H413.77L399.56 159.779L386.84 150.689L371.12 159.769H371.11L356.89 167.979L342.67 176.189L342.66 176.199L328.45 184.409H328.44V200.829H328.45L338.56 211.149L342.67 225.459L356.89 217.249L371.11 209.039H371.12L385.33 200.829L399.56 192.619L413.78 184.409L434.4 172.509L413.78 167.989Z" fill="#FFFFF8"/>
<path d="M314.22 652.44L328.44 644.24L342.66 636.02H342.67L356.89 627.81L371.1 619.6H371.11L385.33 611.39L399.56 603.18L413.78 594.97L428 586.76L442.22 578.55V578.54L456.44 570.34V570.33H456.45L470.66 562.12H470.67L484.89 553.91L499.11 545.7L513.33 537.49L527.55 529.28H527.56V529.27L541.78 521.07V521.06L556 512.86V512.85L570.22 504.64L584.44 496.43V480.01V463.59V447.17V447.16V430.75V430.74V414.33V414.32V397.9V381.48V365.06V365.05V348.63V332.21V332.2V315.79V299.37V299.36V282.94V282.93V266.53V266.52V250.1V250.09V233.68V233.67V217.26V217.25V200.83V184.41V184.4V167.99V167.98L570.22 159.78V176.19V192.62V209.04V225.46H570.23L570.22 225.47V241.88V241.89V258.31V274.72L570.23 274.73L570.22 274.74V291.15V307.58V323.99V324V340.42V356.84V373.27V389.69V406.11V422.54V438.95V455.38V471.8V488.22L556 496.43L541.78 504.64V504.65L541.77 504.64L527.56 512.85H527.55L513.33 521.07L499.11 529.28L484.89 537.48V537.49L470.67 545.69V545.7H470.66L456.44 553.91L442.22 562.12L428 570.33L413.78 578.54H413.77L399.56 586.75L385.33 594.96V594.97L371.11 603.18L356.89 611.39H356.88L342.67 619.6H342.66L328.44 627.81L314.22 636.02H314.21L300 644.23L285.78 652.44V652.45L300 660.66L314.22 652.45V652.44Z" fill="#53576B"/>
<path d="M314.21 636.02H314.22L328.44 627.81L342.66 619.6H342.67L356.88 611.39H356.89L371.11 603.18L385.33 594.97V594.96L399.56 586.75L413.77 578.54H413.78L428 570.33L442.22 562.12L456.44 553.91L470.66 545.7H470.67V545.69L484.89 537.49V537.48L499.11 529.28L513.33 521.07L527.55 512.85H527.56L541.77 504.64H541.78L556 496.43L570.22 488.22V471.8V455.38V438.95V422.54V406.11V389.69V373.27V356.84V340.42V324V323.99V307.58V291.15V274.74V274.72V258.31V241.89V241.88V225.47V225.46V209.04V192.62V176.19V159.78L556 151.57V167.98V167.99V184.4V184.41V200.83V217.25V233.68V250.1V266.51V266.52V282.94V282.95V299.36V299.37V315.78V315.79V332.21V348.63V365.05V365.06V381.48V397.9V414.32V414.33V430.74V430.75V447.16V447.17V463.59V480.01L541.78 488.22L527.56 496.43V496.44L513.34 504.65H513.33L499.11 512.86L484.89 521.07L470.67 529.28L456.45 537.49H456.44V537.5L442.22 545.7V545.71L428.01 553.91H428V553.92L413.78 562.12V562.13L399.56 570.34L385.34 578.55H385.33L371.12 586.76H371.11L356.89 594.97L342.67 603.18V603.19L342.66 603.18L328.45 611.39H328.44V611.4L314.22 619.6V619.61L300 627.82L285.78 636.02V636.03L271.56 644.24L285.77 652.44H285.78L300 644.23L314.21 636.02Z" fill="#A5B1C4"/>
<path d="M300 677.08V660.66L285.78 652.45L285.77 652.44L271.56 644.24L257.33 636.02L243.11 627.81L228.89 619.6L214.67 611.39V627.81V644.23L228.89 652.44L243.11 660.65L243.12 660.66L257.33 668.86L271.56 677.08L285.78 685.29L300 693.5V677.09V677.08ZM271.55 660.66H271.56V660.67H271.55V660.66Z" fill="#EAEACC"/>
<path d="M285.78 636.019L300 627.819L314.22 619.609V619.599L328.44 611.399V611.389H328.45L342.66 603.179H342.67L356.89 594.969L371.11 586.759H371.12L385.33 578.549H385.34L399.56 570.339L413.78 562.129V562.119L428 553.919V553.909H428.01L442.22 545.709V545.699L456.44 537.499V537.489H456.45L470.67 529.279L484.89 521.069L499.11 512.859L513.33 504.649H513.34L527.56 496.439V496.429L541.78 488.219L556 480.009V463.589V447.169V447.159V430.749V430.739V414.329V414.319V397.899V381.479V365.059V365.049V348.629V332.209V315.789V315.779V299.369V299.359V282.949V282.939V266.519V266.509V250.099V233.679V217.249V200.829V184.409V184.399V167.989V167.979V151.569V151.559H555.99L541.78 143.359V159.769V176.199V192.609V192.619V209.039V225.459V225.469V241.889V258.309V274.729V291.159V307.569V323.999V340.419V356.839V356.849V373.259V373.269V389.689V406.109V406.119V422.529V438.959V455.369V455.379V471.799L527.56 480.009H527.55L513.33 488.219L499.11 496.429L484.89 504.639V504.649L470.67 512.849V512.859H470.66L456.44 521.059V521.069L442.22 529.279L428 537.489L413.78 545.699L399.56 553.909L385.33 562.119L371.11 570.329L356.89 578.539V578.549L342.67 586.749V586.759H342.66L328.44 594.969L314.22 603.179L300 611.389L285.78 619.599H285.77L271.56 627.809L257.33 636.019L271.56 644.239L285.78 636.029V636.019Z" fill="#53576B"/>
<path d="M285.77 619.6H285.78L300 611.39L314.22 603.18L328.44 594.97L342.66 586.76H342.67L356.89 578.55L371.11 570.33L385.33 562.12L399.56 553.91L413.78 545.7L428 537.49L442.22 529.28L456.44 521.07L470.66 512.86H470.67L484.89 504.65L499.11 496.43L513.33 488.22L527.55 480.01H527.56L541.78 471.8L527.56 463.59H527.55L513.34 455.38H513.33L499.11 463.59L484.89 471.8L470.67 480.01L456.45 488.22H456.44L442.22 496.43L428 504.64L413.78 512.86L399.56 521.07L385.34 529.28H385.33L371.12 537.49H371.11L356.89 545.7L342.67 553.91L328.45 562.12H328.44L314.22 570.34L300 578.55L285.78 586.76L271.56 594.97L257.33 603.18L243.12 611.39H243.11L228.89 619.6L243.11 627.81L257.33 636.02L271.56 627.81L285.77 619.6Z" fill="#FFFFF8"/>
<path d="M271.56 578.55L285.77 570.34H285.78L300 562.12L314.22 553.91L328.44 545.7H328.45L342.67 537.49L356.89 529.28L371.11 521.07H371.12L385.33 512.86L399.56 504.65L413.78 496.43L428 488.22L442.22 480.01L456.44 471.8H456.45L470.67 463.59L484.89 455.38L499.11 447.17V430.75V414.33V381.48V365.06V299.37V266.53V184.41V167.99V151.57L484.89 159.78L470.67 167.98L456.45 176.2H456.44L442.22 184.41L428.01 192.62H428L413.78 200.83L399.56 209.04L385.34 217.25H385.33L371.12 225.46H371.11L356.89 233.68L342.67 241.89L328.45 250.1H328.44L314.22 258.31L300 266.52L285.78 274.73L271.56 282.94L257.33 291.16L243.12 299.36H243.11V315.78V414.32V430.74V447.16V512.85V545.7V562.12V578.54V594.97L257.33 586.76L271.56 578.55ZM385.33 332.22L385.34 332.21H385.33V332.22ZM399.56 274.74H399.55L399.56 274.72V274.74ZM356.89 299.37H356.88L356.89 299.36V299.37Z" fill="#CECDAE"/>
<path d="M243.12 611.39L257.33 603.18L271.56 594.97L285.78 586.76L300 578.55L314.22 570.34L328.44 562.13L328.45 562.12L342.67 553.91L356.89 545.7L371.11 537.49H371.12L385.33 529.28H385.34L399.56 521.07L413.78 512.86L428 504.65L442.22 496.44L456.44 488.23L456.45 488.22L470.67 480.01L484.89 471.8L499.11 463.59L513.33 455.38V406.12V356.85V307.58V291.16V258.32V241.89V192.62V143.36V126.93L499.11 135.14L484.89 143.35L470.67 151.56L456.45 159.77H456.44L442.22 167.98L428 176.2L413.78 184.4L399.56 192.62L385.33 200.83L371.12 209.04H371.11L356.89 217.25L342.67 225.46L328.44 233.68L314.22 241.88L300 250.1L285.78 258.31H285.77L271.56 266.52L257.33 274.73L243.11 282.94L228.89 285.96V323.99V373.26V537.49V586.75V619.6L243.11 611.39H243.12ZM243.11 578.55V562.13V545.71V512.86V447.17V430.75V414.33V315.79V299.37L243.12 299.36L257.33 291.16L271.56 282.95L285.78 274.73L300 266.52L314.22 258.31L328.44 250.1H328.45L342.67 241.89L356.89 233.68L371.11 225.47L371.12 225.46L385.33 217.26L385.34 217.25L399.56 209.04L413.78 200.83L428 192.62H428.01L442.22 184.41L456.44 176.2H456.45L470.67 167.99L484.89 159.78L499.11 151.57V167.98V184.4V266.52V299.36V365.05V381.47V414.32V430.74V447.16L484.89 455.38L470.67 463.59L456.45 471.8H456.44L442.22 480.01L428 488.22L413.78 496.43L399.56 504.64L385.33 512.86L371.12 521.07H371.11L356.89 529.28L342.67 537.49L328.45 545.7H328.44L314.22 553.91L300 562.12L285.78 570.33L285.77 570.34L271.56 578.54L257.33 586.76L243.11 594.97V578.55Z" fill="#CECDAE"/>
<path d="M200.45 636.02L214.66 644.23H214.67V627.82V611.39L200.44 603.18L186.23 594.97H186.22V614.56C186.22 622.76 190.59 630.33 197.69 634.43L200.44 636.02H200.45Z" fill="#353644"/>
<mask id="mask3_2_10388" style="mask-type:luminance" maskUnits="userSpaceOnUse" x="186" y="233" width="105" height="387">
<path d="M271.56 250.1H271.55L257.33 241.89L243.11 233.68L228.89 241.89L214.67 250.1H214.66L200.44 258.31C191.64 263.39 186.22 272.78 186.22 282.94V299.36V315.78V430.74V463.58V496.43V512.85V545.7V562.12V578.54V594.97H186.23L200.44 603.18L214.67 611.39L228.89 619.6V586.76V537.5V373.27V324.01V291.16L243.11 282.96L257.33 274.74L271.56 266.53L290.22 255.68L271.56 250.11V250.1ZM200.44 488.23L200.45 488.22H200.44V488.23Z" fill="white"/>
</mask>
<g mask="url(#mask3_2_10388)">
<path d="M200.44 603.179L214.67 611.389L228.89 619.599V586.759V537.499V373.269V324.009V285.969L214.67 282.949L200.45 274.739H200.44L186.22 266.529V282.949V299.369V315.789V430.749V463.589V496.439V512.859V545.709V562.129V578.549V594.979H186.23L200.44 603.189V603.179Z" fill="#EAEACC"/>
<path d="M271.55 250.1L257.33 241.89L243.11 233.68L228.89 241.89L214.67 250.1H214.66L200.44 258.31L186.22 266.52L200.44 274.73H200.45L214.67 282.94L219.01 285.45C225.12 288.98 232.65 288.98 238.76 285.45L243.1 282.95L257.32 274.73L271.55 266.52L289.31 256.26L271.55 250.1Z" fill="#FFFFF8"/>
</g>
<path d="M641.33 496.43L632.29 501.65C629.08 503.51 627.11 506.93 627.11 510.64V521.06V537.49L641.33 529.28H641.34L648.44 525.18C652.84 522.64 655.55 517.94 655.56 512.86V504.65V488.22H655.55L641.33 496.43Z" fill="#353644"/>
<mask id="mask4_2_10388" style="mask-type:luminance" maskUnits="userSpaceOnUse" x="456" y="82" width="200" height="431">
<path d="M655.56 168.96C655.56 163.28 652.53 158.03 647.61 155.19L641.33 151.56L627.11 143.35H627.1L612.89 135.15L598.67 126.94L598.66 126.93L584.44 118.72L570.22 110.51L556 102.3L541.78 94.0902H541.77L527.56 85.8802H527.55C518.75 80.8002 507.9 80.7902 499.1 85.8802L484.89 94.0802L470.67 102.29L470.66 102.3L456.45 110.51L470.67 118.72L477.89 130.97L484.89 143.35L499.11 135.14C507.91 130.06 518.75 130.06 527.55 135.14H527.56L541.77 143.35H541.78L555.99 151.56H556L570.22 159.78L584.44 167.98L598.66 176.2H598.67L612.89 184.41V200.83V250.09V282.94V299.36V315.78V348.63V430.74V463.58V512.85L627.1 504.65H627.11L641.33 496.43L655.55 488.22H655.56V471.81V455.38V438.96V422.54V389.69H655.55L655.56 389.68V373.27V356.85H655.55L655.56 356.84V307.58V291.16V241.89H655.55L655.56 241.88V225.47V209.05H655.55L655.56 209.04V176.2C655.56 176.2 655.56 172.72 655.56 168.96ZM513.33 94.0902L513.34 94.0802H513.33V94.0902ZM598.67 159.78H598.66L598.67 159.77V159.78ZM641.33 315.79L641.34 315.78H641.33V315.79ZM641.33 282.95L641.34 282.94H641.33V282.95ZM641.33 167.99L641.34 167.98H641.33V167.99Z" fill="white"/>
</mask>
<g mask="url(#mask4_2_10388)">
<path d="M655.55 159.78L641.34 167.98H641.33L627.11 176.2L612.89 175.44V200.83V250.09V282.94V299.36V315.78V348.63V430.74V463.58V512.85L627.1 504.65H627.11L641.33 496.43L655.55 488.22H655.56V471.81V455.38V438.96V422.54V389.69H655.55L655.56 389.68V373.27V356.85H655.55L655.56 356.84V307.58V291.16V241.89H655.55L655.56 241.88V225.47V209.05H655.55L655.56 209.04V159.78H655.55ZM641.33 315.79L641.34 315.78H641.33V315.79ZM641.33 282.95L641.34 282.94H641.33V282.95Z" fill="#CECDAE"/>
<path d="M641.33 151.56L627.11 143.35H627.1L612.89 135.15L598.67 126.94L598.66 126.93L584.44 118.72L570.22 110.51L556 102.3L541.78 94.0903H541.77L527.56 85.8803H527.55C518.75 80.7903 507.91 80.7903 499.11 85.8703L484.89 94.0803L470.67 102.29L470.66 102.3L456.45 110.51L470.67 118.72L477.89 130.97L484.89 143.35L499.11 135.14L500.89 134.11C508.59 129.66 518.08 129.66 525.78 134.11L527.56 135.14H527.57L541.78 143.35H541.79L556 151.56H556.01L570.23 159.78L584.45 167.98L598.67 176.2H598.68L602.47 178.39C608.92 182.11 616.87 182.11 623.32 178.39L627.11 176.2L641.33 167.99L641.34 167.98L655.55 159.78L641.33 151.56Z" fill="#FFFFF8"/>
</g>
<mask id="mask5_2_10388" style="mask-type:luminance" maskUnits="userSpaceOnUse" x="243" y="106" width="242" height="152">
<path d="M470.67 118.719L456.45 110.509H456.44V110.499C447.64 105.419 436.8 105.419 428 110.499L413.78 118.709L413.77 118.719L410.45 116.799C403.71 112.909 395.4 112.899 388.66 116.799L385.34 118.719H385.33L371.11 126.929L356.89 135.139L342.67 143.349L328.45 151.559H328.44L328.41 151.589C319.63 156.669 314.22 166.049 314.22 176.189V192.619L306.57 188.199C302.5 185.849 297.49 185.849 293.42 188.199L285.77 192.609L285.76 192.619L271.55 200.819V200.839H271.54L257.32 209.039C248.52 214.119 243.1 223.509 243.1 233.669C243.1 233.669 243.1 233.679 243.1 233.689L257.31 241.889L271.53 250.099H271.54L282.2 256.259C284.4 257.529 287.1 257.529 289.3 256.259L297.55 251.499L299.98 250.099L314.2 241.889L328.42 233.679L342.65 225.469V218.699C342.65 212.719 339.46 207.199 334.28 204.209L328.43 200.829H328.42V184.409V184.359C328.42 174.209 333.84 164.829 342.64 159.769H342.65L356.87 151.559L371.09 143.349L385.31 135.139V147.019C385.31 149.829 386.81 152.429 389.24 153.829L399.54 159.779L413.75 167.989H413.76L422.17 172.839C425.77 174.919 430.2 174.919 433.79 172.839L442.2 167.989L456.42 159.779L456.43 159.769L470.65 151.559L484.87 143.349C484.87 133.189 479.45 123.799 470.65 118.719H470.67Z" fill="white"/>
</mask>
<g mask="url(#mask5_2_10388)">
<path d="M442.22 167.99V167.98L456.44 159.78V159.77H456.45L470.67 151.56L484.89 143.35V126.93L470.67 135.14L456.44 143.35L442.23 151.56H442.22L428 155V176.2L442.22 167.99Z" fill="#353644"/>
<path d="M399.56 159.78L413.77 167.99H413.78L428 176.2V154.78L413.78 151.56L399.56 143.35L385.33 135.14V151.56L399.56 159.78Z" fill="#353644"/>
<path d="M271.549 250.1H271.559L285.769 258.31H285.779L289.959 244.3L285.769 241.89L271.559 233.68L257.329 225.47V225.46L243.109 217.25V233.68L257.329 241.89L271.549 250.1Z" fill="#353644"/>
<path d="M257.329 225.47L271.559 233.68L291.109 244.97L298.669 239.33L300.819 236.52L300.009 233.67L314.229 225.47L328.449 217.25L342.679 209.04L328.459 200.83H328.449V184.41C328.449 174.24 333.859 164.86 342.659 159.78H342.669H342.679L356.899 151.57L371.119 143.36L385.339 135.15L399.569 143.36L413.789 151.57L418.179 154.11C424.259 157.62 431.749 157.62 437.839 154.11L442.229 151.57H442.239L456.449 143.36L470.679 135.15L484.899 126.94L470.679 118.73L456.459 110.52H456.449L442.229 102.3L428.009 110.51L413.789 118.72L413.779 118.73L410.459 116.81C403.719 112.92 395.409 112.91 388.669 116.81L385.349 118.73H385.339L371.119 126.94L356.899 135.15L342.679 143.36L328.459 151.57H328.449V151.58C319.659 156.66 314.239 166.04 314.239 176.2V192.63L300.019 184.42L285.799 192.62L285.789 192.63L271.579 200.83V200.85H271.569L257.349 209.05L243.129 217.26L257.349 225.47H257.329Z" fill="#53576B"/>
<path d="M314.219 241.89L328.439 233.68L342.669 225.47V209.04L328.439 217.25L314.219 225.46L299.999 233.67C291.199 238.76 285.779 248.15 285.779 258.31L299.999 250.1L314.219 241.89Z" fill="#353644"/>
</g>
<path d="M561.49 223.859V240.279V240.289V256.699V256.709L575.71 264.919V248.499V248.489V232.069L561.49 223.859Z" fill="#A5B1C4"/>
<path d="M561.49 312.83V329.25V329.26V345.67V345.68L575.71 353.89V337.47V337.46V321.04L561.49 312.83Z" fill="#A5B1C4"/>
<path d="M561.49 401.81V418.23V418.24V434.65V434.66L575.71 442.87V426.45V426.44V410.02L561.49 401.81Z" fill="#A5B1C4"/>
<path d="M303.17 198.99L299.99 200.83L285.77 209.04L273.38 216.19C272.56 216.66 272.56 217.84 273.38 218.31L281.77 223.15C284.25 224.58 287.29 224.58 289.77 223.15L299.99 217.25L314.21 209.04L317.4 207.2L303.17 198.99Z" fill="#A5B1C4"/>
<path d="M527.56 504.97L513.34 513.18L499.12 521.39L484.9 529.6L499.12 537.81L513.34 529.6L527.56 521.39L541.79 513.18L527.56 504.97Z" fill="#A5B1C4"/>
<path d="M378.22 590.41L363.99 598.62L349.78 606.83L335.55 615.04L349.78 623.25L363.99 615.04L378.22 606.83L392.45 598.62L378.22 590.41Z" fill="#A5B1C4"/>
<path d="M444.77 119.939C443.47 119.189 441.86 119.189 440.56 119.939L428.45 126.929L417.53 133.239V137.049L428.45 143.359L442.67 135.149L453.81 128.719C455.18 127.929 455.18 125.949 453.81 125.159L444.77 119.939Z" fill="#A5B1C4"/>
<path d="M456.45 110.51L470.66 102.3H470.67L484.89 94.0896L499.1 85.8796H499.11C503.51 83.3296 508.42 82.0596 513.32 82.0596C518.22 82.0596 523.15 83.3296 527.55 85.8796H527.56L541.77 94.0896H541.78L570.22 110.51L584.44 118.72L598.66 126.93H598.67L612.89 135.14L627.1 143.35H627.11L641.33 151.56L648 155.42C652.68 158.12 655.56 163.11 655.56 168.51V209.04M655.56 209.04H655.55M655.56 209.04V241.88M655.56 241.88H655.55M655.56 241.88V356.84M655.56 356.84H655.55M655.56 356.84V389.68M655.56 389.68H655.55M655.56 389.68V512.86C655.55 517.94 652.84 522.64 648.44 525.18L641.34 529.28H641.33L627.11 537.49L612.89 545.7L598.67 553.91L584.45 562.12H584.44L570.22 570.34L556 578.54L541.78 586.76L527.56 594.97H527.55L513.34 603.18H513.33L499.11 611.39L484.89 619.6L470.67 627.81L456.45 636.02H456.44L442.22 644.24L428 652.45L413.78 660.66L399.56 668.87L385.33 677.08L371.12 685.29H371.11L356.89 693.5L342.67 701.71L342.66 701.72L337.09 704.93C331.74 708.02 325.14 708.02 319.79 704.93L314.22 701.71L300 693.5L285.78 685.29L271.56 677.08L257.33 668.87L243.12 660.66H243.11L228.89 652.44L214.67 644.23H214.66L200.45 636.02H200.44L197.69 634.43C190.59 630.33 186.22 622.76 186.22 614.56V282.94C186.22 272.78 191.64 263.39 200.44 258.31L214.66 250.1H214.67L228.89 241.89L243.11 233.68" stroke="#C1BF93" stroke-width="3" stroke-miterlimit="10"/>
<path d="M328.44 184.409H328.45L342.66 176.199H342.67V176.189L356.89 167.989V167.979L371.11 159.769H371.12L386.84 150.689" stroke="#C1BF93" stroke-width="3" stroke-miterlimit="10"/>
<defs>
<linearGradient id="paint0_linear_2_10388" x1="288.63" y1="723.64" x2="349.75" y2="723.64" gradientUnits="userSpaceOnUse">
<stop stop-color="#53576B"/>
<stop offset="1" stop-color="#777D99"/>
</linearGradient>
<linearGradient id="paint1_linear_2_10388" x1="600.58" y1="541.92" x2="661.7" y2="541.92" gradientUnits="userSpaceOnUse">
<stop stop-color="#53576B"/>
<stop offset="1" stop-color="#777D99"/>
</linearGradient>
<linearGradient id="paint2_linear_2_10388" x1="182.88" y1="679.6" x2="213.01" y2="629.83" gradientUnits="userSpaceOnUse">
<stop stop-color="#53576B"/>
<stop offset="1" stop-color="#777D99"/>
</linearGradient>
</defs>
</svg>
